<svg width="135" height="35" viewBox="0 0 135 35" version="1.1" xmlns="http://www.w3.org/2000/svg" xmlns:xlink="http://www.w3.org/1999/xlink">
	<title>Vector 33 (Stroke)</title>
	<desc>Created using Figma</desc>
	<g id="Canvas" transform="translate(-91 -385)">
		<g id="Vector 33 (Stroke)">
			<use xlink:href="#path0_fill" transform="translate(90.9995 385.33)" fill="#946133"/>
		</g>
	</g>
	<defs>
		<path id="path0_fill" fill-rule="evenodd" d="M 85.8911 7.5223C 84.7568 6.76611 78.2023 3.20056 66.16 4.16394C 60.925 4.57602 57.6795 5.3845 55.3906 6.31685C 53.245 7.16021 52.2292 8.03435 51.3459 8.83807L 50.2461 9.83787L 48.9716 9.07317C 48.3995 8.72995 46.3843 7.8582 44.0005 7.8582C 41.4637 7.84081 38.0779 8.77303 36.633 9.25555L 35.8471 9.51751L 35.1061 9.14704C 34.8452 9.00988 34.512 8.7797 34.2559 8.58604C 34.1393 8.49768 34.014 8.40089 33.8801 8.29756C 33.7308 8.18228 33.571 8.05886 33.401 7.92991C 32.7474 7.43386 31.9733 6.87104 30.9959 6.30612C 28.9936 5.13734 26.6159 4.13298 23.5005 4.17032C 14.2938 4.1487 7.92229 6.10302 2.59708 7.76716C 1.54279 8.09663 0.42104 7.50904 0.0915745 6.45475C -0.237891 5.40046 0.349695 4.27871 1.40398 3.94924C 6.74545 2.28005 13.7072 0.191949 23.5005 0.170325C 27.3852 0.207665 30.7575 1.54724 33.0052 2.84739C 34.1528 3.51693 35.1286 4.21983 35.8188 4.74337C 36.0077 4.88671 36.1775 5.01788 36.3282 5.13424C 36.3381 5.1419 36.348 5.1495 36.3577 5.15703C 38.2606 4.61064 41.4581 3.87264 44.0005 3.8582C 46.2892 3.8582 48.3256 4.42949 49.7043 4.99567C 50.6659 4.25222 52.0072 3.38942 53.8891 2.60936C 56.4432 1.58034 60.2809 0.628215 65.841 0.176683C 78.4293 -0.830375 85.8151 2.73694 87.9367 4.08161L 93.6271 6.45259L 133.477 16.2279C 134.55 16.4911 135.206 17.574 134.943 18.6468C 134.68 19.7196 133.597 20.3759 132.524 20.1127L 92.5241 10.3006L 92.374 10.2638L 92.2313 10.2043L 86.2313 7.70436L 86.0524 7.62981L 85.8911 7.5223ZM 7.16935 7.97332C 8.21033 8.3427 8.75477 9.48602 8.38539 10.527C 7.51216 12.9723 6.78347 16.5066 7.33871 19.8347C 7.82995 22.9553 9.37539 25.476 13.0054 26.4229C 20.562 28.4461 26.355 27.2774 32.1061 24.3815C 34.2293 23.3199 35.1764 21.2263 35.5164 18.5438C 35.7679 16.6474 35.6613 14.6699 35.5735 13.0398C 35.5359 12.3417 35.5017 11.7073 35.5005 11.1703C 35.5005 10.0657 36.396 9.17031 37.5005 9.17031C 38.6051 9.17031 39.5005 10.0657 39.5005 11.1703C 39.4995 11.6016 39.5283 12.1567 39.5619 12.8028C 39.6484 14.4673 39.7662 16.7358 39.4847 19.0468C 39.0747 22.2809 37.7718 26.0208 33.895 27.9592C 27.6461 31.0633 20.439 32.4442 11.9957 30.2934C 6.42568 28.8404 4.05445 24.6944 3.38736 20.4567C 2.78427 16.4264 3.65558 11.9108 4.61568 9.18936C 4.98506 8.14838 6.12838 7.60394 7.16935 7.97332ZM 86.0561 10.5952C 87.0297 10.0736 88.2419 10.4401 88.7635 11.4137C 90.1981 14.0917 91.625 19.6369 89.8223 24.7036C 88.9275 27.1588 87.0246 29.7589 84.1605 31.5211C 81.2311 33.2746 77.26 34.3057 72.0205 34.3581C 61.6503 34.4618 55.516 31.5132 52.185 26.8448C 48.949 22.3097 48.7495 16.6513 49.0039 12.243C 49.0675 11.1403 50.013 10.2979 51.1157 10.3615C 52.2185 10.4251 53.0608 11.3706 52.9972 12.4734C 52.7515 16.7317 53.0521 21.1733 55.4411 24.5215C 57.7351 27.7365 62.3508 30.4546 71.9805 30.3583C 76.7411 30.3107 79.9575 29.3751 82.1062 28.089C 84.3202 26.8116 85.3861 25.2992 86.0537 23.3628C 87.3761 19.6461 86.303 15.2914 85.2376 13.3026C 84.716 12.329 85.0824 11.1168 86.0561 10.5952Z"/>
	</defs>
</svg>
