<svg width="119" height="157" viewBox="0 0 119 157" xmlns="http://www.w3.org/2000/svg" style=""><title>Group</title><g stroke="#4A90E2" stroke-width="5" fill="none" fill-rule="evenodd"><path d="M15.69 130.674C-1.167 45.236-1.167 2.517 15.69 2.517c25.29 0 7.565 105.362 19.67 106.16 12.107.796.068-101.25 16.578-102.173 11.006-.614 11.006 43.037 0 130.953" stroke-linecap="round" stroke-linejoin="round" class="nuOIpJLx_0"></path><path d="M61.844 128.103c.174-8.024 1.354-16.903 10.006-15.882 8.65 1.022 8.45 10.565 8.65 15.883.202 5.317-3.437 15.427-9.327 15.427-5.89 0-9.502-7.403-9.33-15.427z" class="nuOIpJLx_1"></path><path d="M110.017 121.01c-5.285-8.376-9.872-10.575-13.762-6.598-3.89 3.977-2 8.717 5.664 14.22-14.413 6.95-17.176 13.988-8.29 21.114 8.887 7.125 16.22 6.023 22.002-3.308" stroke-linecap="round" stroke-linejoin="round" class="nuOIpJLx_2"></path></g><style>.nuOIpJLx_0{stroke-dasharray:490 492;stroke-dashoffset:491;animation:nuOIpJLx_draw 2944ms ease-in-out 0ms forwards;}.nuOIpJLx_1{stroke-dasharray:82 84;stroke-dashoffset:83;animation:nuOIpJLx_draw 497ms ease-in-out 2944ms forwards;}.nuOIpJLx_2{stroke-dasharray:92 94;stroke-dashoffset:93;animation:nuOIpJLx_draw 557ms ease-in-out 3442ms forwards;}@keyframes nuOIpJLx_draw{100%{stroke-dashoffset:0;}}@keyframes nuOIpJLx_fade{0%{stroke-opacity:1;}95.1219512195122%{stroke-opacity:1;}100%{stroke-opacity:0;}}</style></svg>