<svg width="141" height="176" viewBox="0 0 141 176" version="1.1" xmlns="http://www.w3.org/2000/svg" xmlns:xlink="http://www.w3.org/1999/xlink">
<title>Moe</title>
<desc>Created using Figma</desc>
<g id="Canvas" transform="translate(-36 204)">
<g id="Moe">
<g id="Rectangle">
<use xlink:href="#path0_fill" transform="translate(36 -166)" fill="#FFC6C6"/>
</g>
<g id="Moe">
<g id="Vector 28">
<use xlink:href="#path1_fill" transform="translate(67.1905 -181.016)" fill="#232323"/>
</g>
<g id="Vector 24">
<use xlink:href="#path2_fill" transform="translate(65.9371 -188.42)" fill="#DCA481"/>
</g>
<g id="Subtract">
<use xlink:href="#path3_fill" transform="translate(73 -76)" fill="#28536B"/>
</g>
<g id="Vector 27">
<use xlink:href="#path4_fill" transform="translate(73.2644 -195.582)" fill="#232323"/>
</g>
<g id="Vector 25.1">
<use xlink:href="#path5_stroke" transform="translate(81.5183 -96.9878)" fill="#435058"/>
</g>
<g id="Vector 38">
<use xlink:href="#path6_fill" transform="translate(79.8711 -132.494)" fill="#C56021"/>
</g>
<g id="Vector 26">
<use xlink:href="#path7_stroke" transform="translate(69.2323 -141.054)" fill="#435058"/>
</g>
<g id="Ellipse 3">
<use xlink:href="#path8_fill" transform="translate(98.2146 -132.177)" fill="#FFFFFF"/>
</g>
<g id="Ellipse 3.1">
<use xlink:href="#path9_fill" transform="translate(69.2323 -132.177)" fill="#FFFFFF"/>
</g>
<g id="Ellipse 2">
<use xlink:href="#path10_fill" transform="translate(105.775 -130.275)" fill="#484848"/>
</g>
<g id="Ellipse 2.1">
<use xlink:href="#path11_fill" transform="translate(76.1629 -130.275)" fill="#484848"/>
</g>
<g id="Vector 35">
<use xlink:href="#path12_fill" transform="translate(81.8333 -204)" fill="#8E9B90"/>
</g>
<g id="Vector 34">
<use xlink:href="#path13_fill" transform="translate(57 -192.097)" fill="#8E9B90"/>
</g>
<g id="Vector 36">
<use xlink:href="#path14_stroke" transform="translate(92.229 -197.801)" fill="#FFFFFF"/>
</g>
<g id="Vector 37">
<use xlink:href="#path15_stroke" transform="translate(106.72 -197.167)" fill="#FFFFFF"/>
</g>
</g>
</g>
</g>
<defs>
<path id="path0_fill" d="M 0 10.6578C 8.7868 1.92707 13.7132 2.86764 22.5 10.6578C 57.4519 62.4198 97 34.6378 112 10.6578C 127 -13.3222 141 10.6578 141 10.6578L 141 138L 0 138L 0 10.6578Z"/>
<path id="path1_fill" d="M 8.34232 0.0168728L 11.8076 0.0168728L 15.9029 0.0168818L 19.9982 3.18711L 13.3827 13.9659L 6.76722 12.3808L 4.87707 9.52758C 3.82699 8.78786 1.41181 6.67437 0.15171 4.13818C -1.10838 1.602 5.82213 -0.194476 8.34232 0.0168728Z"/>
<path id="path2_fill" d="M 51.1789 3.61641C 23.2048 -7.79643 9.17572 10.2739 4.55537 23.5889C 3.01525 28.0272 -1.4301 49.5848 0.460122 85.7255C 1.79466 111.241 11.1709 115.843 22.5118 115.209L 20.9367 130.109C 23.7719 128.735 32.4665 124.719 44.5634 119.647C 56.6604 114.575 65.565 113.729 68.5053 113.941C 68.5053 113.624 69.5763 109.122 73.8606 93.651C 74.7686 90.3723 75.3911 88.2185 79.846 84.4574C 83.6263 86.9936 90.6198 81.2871 94.6522 70.8254C 99.0625 57.5104 95.5973 55.9253 90.6198 54.9742C 93.6447 47.7993 95.5665 41.7964 94.6522 38.806C 88.6667 29.2953 79.1531 15.0292 51.1789 3.61641Z"/>
<path id="path3_fill" d="M 2.84519 35.9225L 2.84519 22.2377C 12.3306 17.22 33.9128 6.50026 44.358 3.76331C 54.8031 1.02636 62.9941 0.11404 65.7839 0C 66.4535 0.34212 67.5917 1.4369 66.7883 3.07907C 65.7839 5.13178 65.4492 7.1845 64.7796 13.6847C 64.2439 18.885 65.226 23.15 65.7839 24.6325L 72 48L 0 48L 2.84519 35.9225Z"/>
<path id="path4_fill" d="M 21.4848 27.8981C 15.1844 26.947 7.30875 17.4363 7.30875 17.4363L 0.693253 13.315C -0.461834 12.0469 -1.00788 9.13029 6.04866 7.60858C 10.0317 6.74965 11.8602 6.38901 12.5652 6.27581C 11.7477 5.72089 10.8722 4.60877 13.2942 4.1213C 15.8144 3.61407 17.7046 3.48726 18.3346 3.48726C 17.2845 2.32484 16.1924 0 20.2247 0C 25.2651 0 26.8402 0.634047 30.3055 0.634047C 33.0777 0.634047 36.921 1.47944 38.4961 1.90214C 38.4961 1.90214 38.1811 0.95107 39.7562 0.634047C 41.3313 0.317023 43.8515 2.34596 45.1116 4.1213C 46.3717 5.89665 46.4767 5.91778 46.3717 5.70642C 46.6867 3.80428 48.6399 0.887665 53.9323 4.43833C 59.2247 7.98899 60.9678 9.088 61.1778 9.19368C 62.1229 7.18586 65.5882 4.94556 71.8886 12.0469C 78.1891 19.1482 82.2844 24.7278 83.5445 26.63C 84.6996 28.6378 86.7578 32.9704 85.7497 34.2385C 84.7416 35.5066 84.0696 36.2463 83.8596 36.4577C 85.7497 37.0917 89.656 39.6279 90.16 44.7003C 90.6641 49.7727 87.4298 59.072 85.7497 63.0876L 83.5445 63.0876C 81.4444 63.0876 73.6528 62.0732 71.8886 66.8919C 70.1245 71.7107 69.4735 74.1835 69.3685 74.8175L 62.753 74.8175C 64.3281 65.9408 66.8483 46.6024 64.3281 40.262C 61.8079 33.9215 57.1875 31.0683 55.1924 30.4342C 51.3071 30.6456 42.3394 30.6245 37.5511 28.8491C 32.7627 27.0738 27.7853 28.8491 21.4848 27.8981Z"/>
<path id="path5_stroke" d="M 0.89998 -0.298101C 0.735344 -0.795147 0.198944 -1.06462 -0.298101 -0.89998C -0.795147 -0.735344 -1.06462 -0.198944 -0.89998 0.298101L 0.89998 -0.298101ZM 19.4452 0.401596C 19.667 -0.0727106 19.4623 -0.637012 18.9879 -0.858807C 18.5136 -1.0806 17.9493 -0.875902 17.7275 -0.401596L 19.4452 0.401596ZM -0.89998 0.298101C -0.36174 1.92307 1.24105 2.92331 2.98198 3.51077C 4.73356 4.09666 6.97742 4.37448 9.14032 4.34806C 11.3021 4.31739 13.5596 3.98336 15.3541 3.38669C 17.1242 2.79427 18.7682 1.84931 19.4452 0.401596L 17.7275 -0.401596C 17.3965 0.306448 16.41 1.03378 14.7523 1.58859C 13.1189 2.13916 11.1511 2.42728 9.11526 2.45209C 7.08048 2.48115 5.15422 2.24777 3.58822 1.71417C 2.01156 1.18214 1.1493 0.454603 0.89998 -0.298101L -0.89998 0.298101Z"/>
<path id="path6_fill" d="M 0.072094 21.5576C -0.935982 26.63 8.89277 25.1505 12.9881 24.0938C 15.1932 23.5248 15.225 19.8157 12.9881 19.0214C 11.2652 11.6343 10.4679 0 7.31765 0C 5.42751 0 1.08017 16.4852 0.072094 21.5576Z"/>
<path id="path7_stroke" d="M 9.75297 3.94922C 10.2086 4.47822 11.0067 4.53774 11.5357 4.08216C 12.0647 3.62659 12.1242 2.82843 11.6687 2.29942L 9.75297 3.94922ZM -1.19997 2.09282C -1.41949 2.75555 -1.0602 3.47075 -0.397468 3.69026C 0.265259 3.90978 0.980458 3.55049 1.19997 2.88776L -1.19997 2.09282ZM 24.632 2.72689C 24.4125 3.38962 24.7718 4.10482 25.4345 4.32434C 26.0972 4.54386 26.8124 4.18456 27.0319 3.52184L 24.632 2.72689ZM 41.0859 5.08988C 41.6208 5.53848 42.4181 5.4685 42.8667 4.93357C 43.3153 4.39865 43.2454 3.60134 42.7104 3.15273L 41.0859 5.08988ZM 11.6687 2.29942C 10.1426 0.527443 7.71968 -1.26408 4.09531 -1.26408L 4.09531 1.2641C 6.77142 1.2641 8.5488 2.55097 9.75297 3.94922L 11.6687 2.29942ZM 4.09531 -1.26408C 2.17721 -1.26408 -0.315133 -0.578547 -1.19997 2.09282L 1.19997 2.88776C 1.57523 1.75485 2.6205 1.2641 4.09531 1.2641L 4.09531 -1.26408ZM 27.0319 3.52184C 27.1792 3.07729 27.7229 2.4968 28.8526 2.00967C 29.985 1.51343 31.3083 1.25829 32.7625 1.26409L 32.7625 -1.26409C 31.0664 -1.25829 29.2395 -0.90231 27.8516 -0.311895C 26.4612 0.287622 25.1148 1.26932 24.632 2.72689L 27.0319 3.52184ZM 32.7625 1.26409C 34.2016 1.26409 35.9461 1.91049 37.5802 2.78025C 39.1895 3.63314 40.488 4.58761 41.0859 5.08988L 42.7104 3.15273C 42.0482 2.59825 40.534 1.49206 38.768 0.548494C 37.0269 -0.378211 34.8336 -1.26409 32.7625 -1.26409L 32.7625 1.26409Z"/>
<path id="path8_fill" d="M 14.4911 5.3894C 14.4911 8.36588 11.2472 10.7788 7.24555 10.7788C 3.24394 10.7788 0 8.36588 0 5.3894C 0 2.41291 3.24394 0 7.24555 0C 11.2472 0 14.4911 2.41291 14.4911 5.3894Z"/>
<path id="path9_fill" d="M 12.601 5.07237C 12.601 7.87377 9.78013 10.1447 6.30048 10.1447C 2.82082 10.1447 0 7.87377 0 5.07237C 0 2.27098 2.82082 0 6.30048 0C 9.78013 0 12.601 2.27098 12.601 5.07237Z"/>
<path id="path10_fill" d="M 5.67043 3.48726C 5.67043 5.41322 4.40106 6.97451 2.83521 6.97451C 1.26937 6.97451 0 5.41322 0 3.48726C 0 1.5613 1.26937 0 2.83521 0C 4.40106 0 5.67043 1.5613 5.67043 3.48726Z"/>
<path id="path11_fill" d="M 5.04038 3.17023C 5.04038 4.9211 3.91205 6.34047 2.52019 6.34047C 1.12833 6.34047 0 4.9211 0 3.17023C 0 1.41936 1.12833 0 2.52019 0C 3.91205 0 5.04038 1.41936 5.04038 3.17023Z"/>
<path id="path12_fill" d="M 19.2165 1.76051C 6.10916 4.66242 1.11437 14.1694 0 21.4239L 12.4606 23.4284C 25.5291 27.2465 52.0637 35.8781 53.239 36.6331C 68.0451 46.1438 74.1051 52.4842 80.3311 62.629C 83.2689 58.7154 83.1663 50.7134 83.1663 44.5587C 83.1663 32.1948 78.9418 18.5019 66.785 9.05203C 54.6283 -0.39784 34.9676 -1.72674 19.2165 1.76051Z"/>
<path id="path13_fill" d="M 7.50696 0.635904C -6.10206 3.42571 0.681413 12.7885 12.8623 21.8765L 14.7525 23.4616C 16.7476 20.6084 22.313 14.585 28.6135 13.3169C 34.914 12.0488 64.2112 20.1857 78.0723 24.4127C 77.0222 23.5673 75.2371 19.6574 67.6765 14.585C 59.1708 8.87855 24.5182 -2.85135 7.50696 0.635904Z"/>
<path id="path14_stroke" d="M 9.6874 0.308379C 9.85771 0.00367849 9.74877 -0.381396 9.44407 -0.551708C 9.13937 -0.722021 8.75429 -0.613079 8.58398 -0.308379L 9.6874 0.308379ZM 6.30048 5.07237L 5.73445 5.3536C 5.83877 5.56357 6.05074 5.69854 6.28513 5.70423C 6.51951 5.70992 6.73779 5.58541 6.85218 5.38075L 6.30048 5.07237ZM 3.78029 0L 4.34631 -0.28123C 4.24857 -0.477963 4.05568 -0.609832 3.83689 -0.629504C 3.61809 -0.649177 3.40477 -0.553832 3.2735 -0.37769L 3.78029 0ZM -0.506784 4.69468C -0.715376 4.97457 -0.657579 5.37056 -0.37769 5.57916C -0.0978016 5.78775 0.298191 5.72995 0.506784 5.45006L -0.506784 4.69468ZM 8.58398 -0.308379L 5.74877 4.76399L 6.85218 5.38075L 9.6874 0.308379L 8.58398 -0.308379ZM 6.86651 4.79114L 4.34631 -0.28123L 3.21426 0.28123L 5.73445 5.3536L 6.86651 4.79114ZM 3.2735 -0.37769L -0.506784 4.69468L 0.506784 5.45006L 4.28707 0.37769L 3.2735 -0.37769Z"/>
<path id="path15_stroke" d="M 0.55567 -0.301181C 0.389332 -0.608069 0.00570699 -0.722008 -0.301181 -0.55567C -0.608069 -0.389332 -0.722008 -0.00570699 -0.55567 0.301181L 0.55567 -0.301181ZM -0.55567 6.67333C -0.722008 6.98022 -0.608069 7.36385 -0.301181 7.53018C 0.00570699 7.69652 0.389332 7.58258 0.55567 7.27569L -0.55567 6.67333ZM 7.4875 1.85199C 7.80998 1.71836 7.96307 1.34862 7.82945 1.02614C 7.69582 0.70366 7.32607 0.550567 7.00359 0.684195L 7.4875 1.85199ZM -0.55567 0.301181L 1.33447 3.78844L 2.44581 3.18608L 0.55567 -0.301181L -0.55567 0.301181ZM 1.33447 3.18608L -0.55567 6.67333L 0.55567 7.27569L 2.44581 3.78844L 1.33447 3.18608ZM 2.1321 4.07116L 7.4875 1.85199L 7.00359 0.684195L 1.64819 2.90336L 2.1321 4.07116Z"/>
</defs>
</svg>
