<svg width="481" height="617" viewBox="0 0 481 617" version="1.1" xmlns="http://www.w3.org/2000/svg" xmlns:xlink="http://www.w3.org/1999/xlink">
<title>SKater 2</title>
<desc>Created using Figma</desc>
<g id="Canvas" transform="translate(-651 -717)">
<g id="SKater 2">
<g id="Rectangle 2">
<use xlink:href="#path0_fill" transform="translate(651 717)" fill="#73937E"/>
</g>
<g id="Group 2">
<g id="Group">
<g id="Vector 7">
<use xlink:href="#path1_fill" transform="translate(859.09 806.527)" fill="#ECBFA4"/>
</g>
<mask id="mask0_alpha" mask-type="alpha">
<g id="Vector 7.1">
<use xlink:href="#path2_fill" transform="translate(859.09 806.527)" fill="#ECBFA4"/>
</g>
</mask>
<g id="Vector 9" mask="url(#mask0_alpha)">
<use xlink:href="#path3_fill" transform="translate(857.235 812.054)" fill="#3F3C3C"/>
</g>
</g>
<g id="Vector 10">
<use xlink:href="#path4_fill" transform="translate(857.551 825)" fill="#ECBFA4"/>
</g>
<g id="Vector 10.1">
<use xlink:href="#path4_fill" transform="matrix(-1 0 0 1 895.551 824)" fill="#ECBFA4"/>
</g>
<g id="Vector 14">
<use xlink:href="#path5_fill" transform="translate(912.551 868.5)" fill="#DB8C4D"/>
</g>
<g id="Vector">
<use xlink:href="#path6_fill" transform="translate(821 846)" fill="#ECBFA4"/>
</g>
<g id="Vector 12">
<use xlink:href="#path7_fill" transform="translate(879.551 1175.79)" fill="#ECBFA4"/>
</g>
<g id="Vector 13">
<use xlink:href="#path8_fill" transform="translate(876.551 1194.85)" fill="#FFFFFF"/>
</g>
<g id="Vector 14">
<use xlink:href="#path9_fill" transform="translate(863.551 1164)" fill="#1E2224"/>
</g>
<g id="Vector 4">
<use xlink:href="#path10_fill" transform="translate(844.051 957)" fill="#223843"/>
</g>
<g id="Vector 5">
<use xlink:href="#path11_fill" transform="translate(859.551 1159.5)" fill="#ECBFA4"/>
</g>
<g id="Vector 3">
<use xlink:href="#path12_fill" transform="translate(863.551 962.002)" fill="#223843"/>
</g>
<g id="Vector 7">
<use xlink:href="#path13_fill" transform="matrix(0.992776 0.119986 -0.121634 0.992575 865.831 830.714)" fill="#ECBFA4"/>
</g>
<g id="Vector 2">
<use xlink:href="#path14_fill" transform="translate(821.051 843.078)" fill="#F19953"/>
</g>
<g id="Vector 8">
<use xlink:href="#path15_fill" transform="translate(858.551 801)" fill="#FFD275"/>
</g>
<g id="Vector 11">
<use xlink:href="#path16_fill" transform="translate(848.551 1180.94)" fill="#FFFFFF"/>
</g>
<g id="Vector 9">
<use xlink:href="#path17_fill" transform="translate(854.444 1216.47)" fill="#424B54"/>
</g>
<g id="Rectangle">
<use xlink:href="#path18_fill" transform="translate(857.551 1236)" fill="#FFFFFF"/>
</g>
<g id="Rectangle">
<use xlink:href="#path19_fill" transform="translate(900.551 1236)" fill="#FFFFFF"/>
</g>
<g id="Vector 10">
<use xlink:href="#path20_fill" transform="translate(873.051 1234.5)" fill="#C4C4C4"/>
</g>
</g>
</g>
</g>
<defs>
<path id="path0_fill" d="M 0 0L 481 0L 481 617L 0 617L 0 0Z"/>
<path id="path1_fill" d="M 2.15292 33.5094C 5.68776 48.5551 15.245 53.4714 19.3362 53.3064C 21.4637 53.9663 24.8349 51.8216 27.1915 49.8419C 30.1372 47.3673 33.0829 44.8927 35.0467 23.116C 37.0105 1.33924 24.2457 -1.13539 11.9719 0.349388C -0.301841 1.83416 -2.26565 14.7022 2.15292 33.5094Z"/>
<path id="path2_fill" d="M 2.15292 33.5094C 5.68776 48.5551 15.245 53.4714 19.3362 53.3064C 21.4637 53.9663 24.8349 51.8216 27.1915 49.8419C 30.1372 47.3673 33.0829 44.8927 35.0467 23.116C 37.0105 1.33924 24.2457 -1.13539 11.9719 0.349388C -0.301842 1.83416 -2.26565 14.7022 2.15292 33.5094Z"/>
<path id="path3_fill" d="M 19.0153 0L 37.103 10.1329L 37.103 21.4459L 33.3165 24.4459C 29.6062 22.9106 27.3634 19.8053 19.4791 20.2659C 10.2033 20.8077 9.56304 23.8359 6.31653 26.4459L 2.78272 23.0294L 0 10.5935L 5.10166 5.06647L 19.0153 0Z"/>
<path id="path4_fill" d="M 0 1.11603C 0 0.10314 0.249941 -0.246674 0.874941 0.175362C 1.12494 0.316045 1.62494 0.681818 1.62494 1.01945C 1.62494 1.35708 1.87494 5.38049 1.99994 7.34999C 1.74994 7.77202 1.77494 8.11609 0.874941 8.11609C -0.250059 8.11609 0.124941 5.23981 0.124941 4.39574C 0.124941 3.55166 0 2.38213 0 1.11603Z"/>
<path id="path5_fill" d="M 29 15.5C 26.6 19.5 14.3333 24.8333 8 26.5L 0 22L 18 0C 24.3784 0.46777 27.863 1.5866 33.5 9C 33.1667 9.66667 31.4 11.5 29 15.5Z"/>
<path id="path6_fill" d="M 0.0510254 87.5C 0.435247 96.0205 11.6 104.504 17.8436 111.161L 24.051 116L 24.051 96L 17.8436 84.5L 25.0478 51.5701L 82.2008 34.2629L 91.3261 37.8131L 116.096 57C 116.096 59.2189 111.551 64.1393 111.551 75.5C 111.551 86.8607 101.092 102.161 97.0894 111.036L 100.932 135C 102.052 133.373 105.254 127.811 109.096 118.58C 112.939 109.35 141.551 64.988 141.551 57C 141.551 51.2309 100.163 10.654 97.0894 8.5239C 93.2472 5.86125 97.5697 -2.12677 49.0617 0.535904C 36.2433 1.23953 25.125 3.17626 17.8436 12.0741C 0.571651 33.1806 -0.286825 80.0078 0.0510254 87.5Z"/>
<path id="path7_fill" d="M 17 33.2052L 17 0.205172C 12.3333 -0.294828 3 -0.194828 3 4.20517C 3 8.60517 1 23.0385 0 29.7052L 17 33.2052Z"/>
<path id="path8_fill" d="M 15 1.1547C 13.5 0.154701 9 -0.845299 5.5 1.1547L 0 15.6548L 0 25.1548L 30 28.1548L 30 25.1548L 20.5 5.15479C 20.3333 5.65479 19.6 6.75479 18 7.15479C 16 7.65479 16.5 2.1547 15 1.1547Z"/>
<path id="path9_fill" d="M 1.5 6C 2.3 6.8 9.5 8 13 8.5L 24.5 10L 21 0L 0 2.5C 0.166667 3.33333 0.7 5.2 1.5 6Z"/>
<path id="path10_fill" d="M 13.5 96.5C 9.1 73.3 2.66667 33.8333 0 17L 29 0L 43.5 30.5L 51 132L 56.5 175.5L 69.5 216.5L 29 233L 26.5 203L 20 142.5L 23 136.5L 20 134.5L 23 132C 21.6667 129.833 17.9 119.7 13.5 96.5Z"/>
<path id="path11_fill" d="M 5.5 17L 10 4L 19 0L 27.5 7C 25.6667 9.5 21.4 15.9 19 21.5C 16.6 27.1 18 31.1667 19 32.5L 16.5 41.5L 0 34L 5.5 17Z"/>
<path id="path12_fill" d="M 39 82.4984C 34.4137 72.1792 17.1667 44.1651 9 31.4984L 0 5.4984C 0.333333 4.66507 3.6 2.4984 14 0.498399C 24.4 -1.5016 51.3333 2.9984 63.5 5.4984L 68.5 31.4984C 71.6667 55.9984 78 105.698 78 108.498C 78 111.298 45.3333 179.665 29 213.498C 27 212.332 21.5 209.398 15.5 206.998C 9.5 204.598 2.66667 204.332 0 204.498C 5.33333 190.665 17.1 160.398 21.5 149.998C 25.7811 139.879 36.2474 112.53 41.5689 98.6248L 42 97.4984L 44 91.9984C 43 90.9984 43 91.4984 39 82.4984Z"/>
<path id="path13_fill" d="M 0.426822 5.72182C -0.814139 9.54864 0.943888 23.2614 1.97802 29.6394L 32.2264 28.045C 29.8996 19.8067 24.4704 2.85171 21.368 0.9383C 17.49 -1.45346 1.97802 0.9383 0.426822 5.72182Z"/>
<path id="path14_fill" d="M 19.5 70.4219L 0 65.4219C 1.5 58.4219 3.63333 32.4219 11 19.4219C 14.1167 13.9219 29.5186 1.71034 54 0.421869C 82.5 -1.07811 89.5 1.42183 97 7.92184C 104.5 14.4219 118.833 25.0887 125 34.422C 121.957 30.4218 121.7 31.6221 116.5 34.4221C 111.3 37.2221 103.333 47.4221 99.5 51.9221C 99.5 52.2554 98.7 53.822 99.5 59.422C 100.5 66.422 108 116.922 108.5 121.922C 108.9 125.922 107.667 126.922 107 126.922L 102.5 126.922C 91.8333 126.255 67.2 125.322 54 126.922C 40.8 128.522 25.5 138.922 19.5 143.922L 19.5 70.4219Z"/>
<path id="path15_fill" fill-rule="evenodd" d="M 0.538611 22.5688C 2.42862 22.1737 6.07241 21.4861 9.81435 20.9479C 11.8879 20.6497 13.9915 20.3973 15.8436 20.2659C 17.7938 20.1276 20.4588 20.2013 23.2642 20.3799C 27.931 20.677 32.9864 21.2641 35.7864 21.6477C 35.7968 21.2356 35.8162 20.7813 35.8371 20.2923C 36.1278 13.4951 36.7048 0 17.2349 0C -0.85273 0 -0.852751 14.5853 0.538611 22.5688ZM 10.5348 17.9629C 11.482 15.8874 13.4306 13.8177 16.7712 13.8177C 20.1127 13.8177 21.8625 15.5961 22.6721 17.5023L 15.8436 17.5023C 13.9884 17.5023 11.5314 17.8094 10.5348 17.9629Z"/>
<path id="path16_fill" d="M 5 11.0644C 6.83333 7.56435 10.8 0.464355 12 0.0643547C 13.5 -0.435645 18 2.06435 18 4.56435C 18 7.06435 23 14.0643 25 13.0643C 27 12.0643 30.5 7.06431 31 9.06433C 31.5 11.0644 34.5 19.0643 37 22.5643C 39.5 26.0643 51 31.5643 51 33.5643C 51 35.1643 50.3333 36.8977 50 37.5643C 50 38.0643 49.8 39.1643 49 39.5643C 48.2 39.9643 37.3333 37.731 32 36.5643C 29.3333 35.231 22.8 32.3643 18 31.5643C 12 30.5643 0 22.5643 0 20.0643C 0 19.9301 0.0461591 19.8217 0.134061 19.7373L 5 11.0644Z"/>
<path id="path17_fill" d="M 0.107178 7.52596C 1.30718 11.526 3.27384 13.1926 4.10718 13.526C 7.60718 14.1926 15.9072 15.6259 21.1072 16.0259C 27.6072 16.5259 54.1072 14.5259 56.6072 13.526C 59.1072 12.526 58.1072 7.52596 56.6072 6.02588C 55.1072 4.5258 42.1072 2.52596 27.6072 0.525961C 13.1072 -1.47404 -1.39282 2.52596 0.107178 7.52596Z"/>
<path id="path18_fill" d="M 0 5C 0 2.23858 2.23858 0 5 0L 7 0C 9.76142 0 12 2.23858 12 5L 12 10C 12 12.7614 9.76142 15 7 15L 5 15C 2.23858 15 0 12.7614 0 10L 0 5Z"/>
<path id="path19_fill" d="M 0 5C 0 2.23858 2.23858 0 5 0L 8 0C 10.7614 0 13 2.23858 13 5L 13 10C 13 12.7614 10.7614 15 8 15L 5 15C 2.23858 15 0 12.7614 0 10L 0 5Z"/>
<path id="path20_fill" d="M 8 6.5L 7 1.5L 19 0L 16.5 6.5L 23.5 6.5L 23.5 11.5L 0 11.5L 0 6.5L 8 6.5Z"/>
</defs>
</svg>
