<svg width="142" height="169" viewBox="0 0 142 169" version="1.1" xmlns="http://www.w3.org/2000/svg" xmlns:xlink="http://www.w3.org/1999/xlink">
<title>Header</title>
<desc>Created using Figma</desc>
<g id="Canvas" transform="translate(223 243)">
<g id="Header">
<g id="Hi I&#226;&#128;&#153;m">
<use xlink:href="#path0_fill" transform="translate(-223 -224)"/>
</g>
<g id="Group 3">
<g id="Vector 31">
<use xlink:href="#path1_stroke" transform="translate(-172 -242)" fill="#28536B"/>
</g>
<g id="Ellipse 4">
<mask id="mask0_outline_ins">
<use xlink:href="#path2_fill" fill="white" transform="translate(-156.494 -215.014)"/>
</mask>
<g mask="url(#mask0_outline_ins)">
<use xlink:href="#path3_stroke_2x" transform="translate(-156.494 -215.014)" fill="#28536B"/>
</g>
</g>
<g id="Vector 32">
<use xlink:href="#path4_stroke" transform="translate(-149.381 -213.583)" fill="#28536B"/>
</g>
<g id="Ellipse 5">
<use xlink:href="#path5_fill" transform="translate(-139.992 -205.574)" fill="#28536B"/>
</g>
</g>
<g id="Product Designer Digital Illustrator iOS Developer based in Brooklyn, NY.">
<use xlink:href="#path6_fill" transform="translate(-205 -199)"/>
</g>
<g id="A">
<use xlink:href="#path7_fill" transform="translate(-223 -199)"/>
</g>
</g>
</g>
<defs>
<path id="path0_fill" d="M 1.552 4.672L 2.608 4.672L 2.608 9.664L 8.944 9.664L 8.944 4.672L 10 4.672L 10 16L 8.944 16L 8.944 10.624L 2.608 10.624L 2.608 16L 1.552 16L 1.552 4.672ZM 12.9869 8.608L 13.9469 8.608L 13.9469 16L 12.9869 16L 12.9869 8.608ZM 12.7469 5.68C 12.7469 5.47733 12.8162 5.30667 12.9549 5.168C 13.0935 5.02933 13.2642 4.96 13.4669 4.96C 13.6695 4.96 13.8402 5.02933 13.9789 5.168C 14.1175 5.30667 14.1869 5.47733 14.1869 5.68C 14.1869 5.88267 14.1175 6.05333 13.9789 6.192C 13.8402 6.33067 13.6695 6.4 13.4669 6.4C 13.2642 6.4 13.0935 6.33067 12.9549 6.192C 12.8162 6.05333 12.7469 5.88267 12.7469 5.68ZM 21.0989 4.672L 22.1549 4.672L 22.1549 16L 21.0989 16L 21.0989 4.672ZM 25.7031 4.672L 26.8711 4.672L 25.6391 8.32L 24.6951 8.32L 25.7031 4.672ZM 29.1394 10.688C 29.1394 10.5493 29.134 10.384 29.1234 10.192C 29.1127 9.98933 29.102 9.78667 29.0914 9.584C 29.0914 9.38133 29.086 9.19467 29.0754 9.024C 29.0647 8.84267 29.0594 8.704 29.0594 8.608L 30.0194 8.608C 30.03 8.88533 30.0354 9.152 30.0354 9.408C 30.046 9.664 30.062 9.82933 30.0834 9.904L 30.1314 9.904C 30.3234 9.49867 30.6434 9.152 31.0914 8.864C 31.5394 8.56533 32.062 8.416 32.6594 8.416C 33.15 8.416 33.598 8.544 34.0034 8.8C 34.4087 9.04533 34.702 9.45067 34.8834 10.016C 35.118 9.46133 35.4647 9.056 35.9234 8.8C 36.3927 8.544 36.8834 8.416 37.3954 8.416C 37.9714 8.416 38.4407 8.50667 38.8034 8.688C 39.166 8.86933 39.4487 9.10933 39.6514 9.408C 39.8647 9.696 40.0087 10.032 40.0834 10.416C 40.1687 10.8 40.2114 11.1947 40.2114 11.6L 40.2114 16L 39.2514 16L 39.2514 11.648C 39.2514 11.3493 39.2247 11.0613 39.1714 10.784C 39.118 10.496 39.022 10.24 38.8834 10.016C 38.7554 9.792 38.5687 9.616 38.3234 9.488C 38.0887 9.34933 37.7794 9.28 37.3954 9.28C 36.9474 9.28 36.5794 9.36533 36.2914 9.536C 36.0034 9.696 35.774 9.904 35.6034 10.16C 35.4434 10.416 35.326 10.6933 35.2514 10.992C 35.1874 11.2907 35.1554 11.5733 35.1554 11.84L 35.1554 16L 34.1954 16L 34.1954 11.552C 34.1954 10.8693 34.0674 10.32 33.8114 9.904C 33.566 9.488 33.182 9.28 32.6594 9.28C 32.3074 9.28 31.9714 9.344 31.6514 9.472C 31.342 9.58933 31.07 9.776 30.8354 10.032C 30.6114 10.2773 30.43 10.592 30.2914 10.976C 30.1634 11.3493 30.0994 11.792 30.0994 12.304L 30.0994 16L 29.1394 16L 29.1394 10.688Z"/>
<path id="path1_stroke" d="M -0.49145 31.9C -0.542299 32.1714 -0.36349 32.4327 -0.0920692 32.4835C 0.179351 32.5344 0.440602 32.3556 0.49145 32.0842L -0.49145 31.9ZM 13.9017 35.6279C 14.1719 35.5713 14.3452 35.3063 14.2885 35.036C 14.2319 34.7657 13.9669 34.5925 13.6967 34.6491L 13.9017 35.6279ZM 0 31.9921C 0.49145 32.0842 0.49147 32.084 0.491513 32.0838C 0.491558 32.0836 0.491624 32.0832 0.491713 32.0828C 0.491893 32.0818 0.49216 32.0804 0.492519 32.0785C 0.49324 32.0746 0.494314 32.0689 0.495747 32.0613C 0.498619 32.046 0.502897 32.0232 0.508563 31.9931C 0.51991 31.9328 0.536753 31.8435 0.55883 31.7269C 0.603011 31.4935 0.667998 31.1514 0.751424 30.7157C 0.918337 29.844 1.1587 28.5995 1.45304 27.1055C 2.04186 24.1166 2.84559 20.1345 3.70731 16.1513C 4.56902 12.1681 5.4861 8.19473 6.30371 5.21464C 6.71163 3.72737 7.08878 2.5064 7.42288 1.65128C 7.58716 1.22968 7.72613 0.928611 7.85616 0.721412C 7.91485 0.625865 7.94195 0.588988 7.97778 0.558407C 8.00303 0.53516 7.9482 0.599077 7.82427 0.599078L 7.82426 -0.400922C 7.58475 -0.400919 7.40628 -0.27471 7.30044 -0.177266C 7.20518 -0.0871576 7.09377 0.0550531 7.00711 0.193099C 6.84643 0.453084 6.6674 0.837216 6.49132 1.2877C 6.14468 2.17673 5.75163 3.4474 5.33934 4.9501C 4.51652 7.94995 3.59311 11.9499 2.72992 15.9399C 1.86675 19.9299 1.06117 23.9211 0.471903 26.9122C 0.177203 28.4081 -0.0636688 29.6552 -0.230732 30.5277C -0.314294 30.964 -0.379481 31.3072 -0.423725 31.5409C -0.445862 31.6579 -0.462794 31.7477 -0.47417 31.8081C -0.479865 31.8383 -0.484186 31.8613 -0.487072 31.8767C -0.488518 31.8844 -0.489613 31.8902 -0.490341 31.8941C -0.490706 31.8961 -0.490984 31.8975 -0.491167 31.8985C -0.49126 31.899 -0.49133 31.8994 -0.491377 31.8996C -0.491425 31.8999 -0.49145 31.9 0 31.9921ZM 7.82427 0.599078C 7.71314 0.59908 7.64017 0.542867 7.61511 0.515986C 7.60699 0.512669 7.61509 0.509375 7.6371 0.57205C 7.69627 0.724401 7.73576 0.945331 7.76898 1.28653C 7.83874 1.98742 7.84161 2.98998 7.80072 4.22421C 7.719 6.69954 7.45922 10.0073 7.20845 13.3346C 6.95768 16.6619 6.71588 20.0112 6.67232 22.5446C 6.65068 23.8153 6.68016 24.9091 6.78386 25.6851C 6.8379 26.0827 6.92333 26.4468 7.02912 26.6974C 7.13405 26.9409 7.34744 27.2889 7.76363 27.3398L 7.88491 26.3471C 8.03085 26.365 8.02222 26.4751 7.94748 26.3017C 7.87361 26.1354 7.82172 25.9035 7.77493 25.5518C 7.67696 24.8291 7.65067 23.8107 7.67217 22.5618C 7.71489 20.0558 7.95497 16.7355 8.20562 13.4098C 8.45627 10.084 8.71745 6.75521 8.80017 4.25725C 8.8415 3.00483 8.83745 1.93657 8.76415 1.18829C 8.72585 0.804906 8.65977 0.456668 8.57346 0.220999C 8.52568 0.0935421 8.45596 -0.0485599 8.34658 -0.165893C 8.22809 -0.292995 8.05099 -0.400925 7.82426 -0.400922L 7.82427 0.599078ZM 7.76363 27.3398C 8.20829 27.3941 8.49573 27.0582 8.63972 26.8404C 8.79293 26.6052 8.9489 26.2481 9.08296 25.8454C 9.34365 25.0572 9.59805 23.9195 9.84173 22.5842C 10.3275 19.9207 10.7951 16.3702 11.2644 12.8862C 11.7338 9.40232 12.2043 5.98871 12.6992 3.57055C 12.9452 2.36719 13.1856 1.45014 13.4354 0.885331C 13.5624 0.596121 13.6541 0.492288 13.6804 0.47263C 13.6862 0.466806 13.6444 0.491117 13.6489 0.487711C 13.6257 0.495817 13.5951 0.50154 13.5604 0.499633C 13.4873 0.495611 13.4554 0.462591 13.4689 0.4745L 14.1294 -0.276344C 14.0007 -0.389573 13.8279 -0.48716 13.6154 -0.498856C 13.4 -0.510709 13.2179 -0.430341 13.0811 -0.327877C 12.8337 -0.142672 12.6569 0.171208 12.5198 0.483126C 12.2415 1.12057 11.9715 2.13943 11.7195 3.37014C 11.2186 5.82011 10.743 9.26726 10.2734 12.7527C 9.8038 16.2382 9.33956 19.7657 8.85797 22.4048C 8.61798 23.7208 8.37984 24.7906 8.13379 25.5306C 8.01447 25.8919 7.91351 26.1291 7.80557 26.2889C 7.68842 26.466 7.71049 26.3258 7.88491 26.3471L 7.76363 27.3398ZM 13.4689 0.4745C 13.4418 0.45578 13.5003 0.503365 13.539 0.589706C 13.5849 0.685656 13.6198 0.791093 13.6592 0.950123C 13.7424 1.27995 13.8004 1.70197 13.8421 2.24175C 13.9273 3.33219 13.9287 4.77989 13.8756 6.48354C 13.7693 9.89615 13.4428 14.2567 13.1298 18.5478C 12.8168 22.8388 12.5172 27.0631 12.467 30.1785C 12.4421 31.7406 12.4813 33.0552 12.6137 33.9527C 12.6802 34.4004 12.7772 34.8023 12.9321 35.0951C 13.0107 35.2435 13.1231 35.4007 13.289 35.5107C 13.4708 35.6312 13.6849 35.6733 13.9017 35.6279L 13.6967 34.6491C 13.682 34.6418 13.8566 34.6759 13.8416 34.6773C 13.8526 34.6777 13.848 34.6929 13.816 34.6273C 13.7431 34.4897 13.6653 34.2263 13.6029 33.8058C 13.4774 32.967 13.442 31.734 13.4669 30.1945C 13.5163 27.1065 13.8142 22.9106 14.1271 18.6205C 14.4401 14.3304 14.7679 9.94907 14.8751 6.51469C 14.9286 4.79486 14.9265 3.29281 14.8391 2.16425C 14.7946 1.59452 14.7241 1.08972 14.6293 0.707532C 14.5372 0.339299 14.3948 -0.0428994 14.1294 -0.276344L 13.4689 0.4745Z"/>
<path id="path2_fill" d="M 5.9749 5.29167C 5.9749 8.21417 4.63737 10.5833 2.98745 10.5833C 1.33753 10.5833 0 8.21417 0 5.29167C 0 2.36916 1.33753 0 2.98745 0C 4.63737 0 5.9749 2.36916 5.9749 5.29167Z"/>
<path id="path3_stroke_2x" d="M 4.9749 5.29167C 4.9749 6.61311 4.67037 7.76016 4.22908 8.54182C 3.77051 9.35409 3.29254 9.58333 2.98745 9.58333L 2.98745 11.5833C 4.33228 11.5833 5.34803 10.628 5.9707 9.52506C 6.61066 8.39151 6.9749 6.89272 6.9749 5.29167L 4.9749 5.29167ZM 2.98745 9.58333C 2.68236 9.58333 2.20439 9.35409 1.74581 8.54182C 1.30452 7.76016 1 6.61311 1 5.29167L -1 5.29167C -1 6.89272 -0.63576 8.39151 0.00419419 9.52506C 0.626862 10.628 1.64262 11.5833 2.98745 11.5833L 2.98745 9.58333ZM 1 5.29167C 1 3.97022 1.30452 2.82317 1.74581 2.04151C 2.20439 1.22924 2.68236 1 2.98745 1L 2.98745 -1C 1.64262 -1 0.626862 -0.0446591 0.00419419 1.05827C -0.63576 2.19182 -1 3.69061 -1 5.29167L 1 5.29167ZM 2.98745 1C 3.29254 1 3.77051 1.22924 4.22908 2.04151C 4.67037 2.82317 4.9749 3.97022 4.9749 5.29167L 6.9749 5.29167C 6.9749 3.69061 6.61066 2.19182 5.9707 1.05827C 5.34803 -0.0446591 4.33228 -1 2.98745 -1L 2.98745 1Z"/>
<path id="path4_stroke" d="M 6.08354 0.950928C 6.30349 1.11789 6.61714 1.07493 6.7841 0.854977C 6.95106 0.635025 6.9081 0.321371 6.68815 0.15441L 6.08354 0.950928ZM 5.47852 2.86859L 5.47852 3.36859C 5.74802 3.36859 5.96902 3.15501 5.97823 2.88568C 5.98744 2.61634 5.78154 2.38816 5.51267 2.36976L 5.47852 2.86859ZM 8.07291 7.55487C 8.24509 7.33898 8.20966 7.02439 7.99377 6.85221C 7.77788 6.68003 7.46328 6.71546 7.2911 6.93135L 8.07291 7.55487ZM 6.68815 0.15441C 5.36908 -0.846862 3.6939 -0.542506 2.65002 0.0268734C 2.13496 0.307808 1.66342 0.710487 1.47787 1.1737C 1.37822 1.42248 1.34913 1.72694 1.50113 2.01666C 1.64746 2.29556 1.91327 2.4672 2.20241 2.5685L 2.53305 1.62474C 2.38832 1.5813 2.37807 1.51216 2.38666 1.55206C 2.40902 1.56004 2.37076 1.61279 2.40617 1.54555C 2.46446 1.40003 2.69448 1.1417 3.12886 0.904774C 3.98386 0.438422 5.19913 0.279594 6.08354 0.950928L 6.68815 0.15441ZM 2.20241 2.5685C 3.98107 3.19164 5.09058 3.36859 5.47852 3.36859L 5.47852 2.36859C 5.2616 2.36859 4.27996 2.23675 2.53305 1.62474L 2.20241 2.5685ZM 5.51267 2.36976C 4.77763 2.31944 3.8993 2.53371 3.07353 2.8784C 2.24976 3.22377 1.3951 3.74266 0.757636 4.31009C 0.124133 4.87684 -0.407803 5.5844 -0.489303 6.35244C -0.578675 7.19465 -0.11668 7.92427 0.827816 8.45164L 1.31533 7.57853C 0.600734 7.17953 0.470812 6.78121 0.505114 6.45796C 0.547288 6.06052 0.854616 5.5651 1.42438 5.05537C 1.99019 4.54632 2.7028 4.11526 3.45874 3.80123C 4.21267 3.48653 4.92645 3.33197 5.44437 3.36742L 5.51267 2.36976ZM 0.827816 8.45164C 4.40434 10.4486 7.1338 8.73238 8.07291 7.55487L 7.2911 6.93135C 6.58841 7.81243 4.37517 9.28702 1.31533 7.57853L 0.827816 8.45164Z"/>
<path id="path5_fill" d="M 1.99163 1.28716C 1.99163 1.99804 1.54579 2.57432 0.995816 2.57432C 0.445842 2.57432 0 1.99804 0 1.28716C 0 0.576282 0.445842 0 0.995816 0C 1.54579 0 1.99163 0.576282 1.99163 1.28716Z"/>
<path id="path6_fill" d="M 1.552 4.672L 4.816 4.672C 5.21067 4.672 5.62133 4.72 6.048 4.816C 6.48533 4.90133 6.88 5.056 7.232 5.28C 7.59467 5.504 7.888 5.81333 8.112 6.208C 8.34667 6.592 8.464 7.07733 8.464 7.664C 8.464 8.176 8.368 8.61867 8.176 8.992C 7.99467 9.36533 7.744 9.67467 7.424 9.92C 7.11467 10.1547 6.752 10.3307 6.336 10.448C 5.93067 10.5653 5.504 10.624 5.056 10.624L 2.608 10.624L 2.608 16L 1.552 16L 1.552 4.672ZM 2.608 9.664L 5.008 9.664C 5.30667 9.664 5.6 9.632 5.888 9.568C 6.176 9.49333 6.432 9.38133 6.656 9.232C 6.88 9.072 7.06133 8.864 7.2 8.608C 7.33867 8.352 7.408 8.03733 7.408 7.664C 7.408 7.30133 7.33333 6.992 7.184 6.736C 7.04533 6.48 6.85867 6.272 6.624 6.112C 6.4 5.94133 6.13867 5.81867 5.84 5.744C 5.54133 5.66933 5.24267 5.632 4.944 5.632L 2.608 5.632L 2.608 9.664ZM 10.4675 10.688C 10.4675 10.5493 10.4622 10.384 10.4515 10.192C 10.4408 9.98933 10.4302 9.78667 10.4195 9.584C 10.4195 9.38133 10.4142 9.19467 10.4035 9.024C 10.3928 8.84267 10.3875 8.704 10.3875 8.608L 11.3475 8.608C 11.3582 8.88533 11.3635 9.152 11.3635 9.408C 11.3742 9.664 11.3902 9.82933 11.4115 9.904C 11.6568 9.46667 11.9715 9.10933 12.3555 8.832C 12.7395 8.55467 13.2088 8.416 13.7635 8.416C 13.8595 8.416 13.9502 8.42667 14.0355 8.448C 14.1315 8.45867 14.2275 8.47467 14.3235 8.496L 14.2115 9.44C 14.0835 9.39733 13.9608 9.376 13.8435 9.376C 13.4275 9.376 13.0648 9.44533 12.7555 9.584C 12.4568 9.712 12.2062 9.89333 12.0035 10.128C 11.8115 10.3627 11.6675 10.64 11.5715 10.96C 11.4755 11.2693 11.4275 11.6053 11.4275 11.968L 11.4275 16L 10.4675 16L 10.4675 10.688ZM 15.0984 12.304C 15.0984 11.7387 15.1944 11.2213 15.3864 10.752C 15.5784 10.272 15.845 9.86133 16.1864 9.52C 16.5277 9.168 16.9384 8.896 17.4184 8.704C 17.8984 8.512 18.421 8.416 18.9864 8.416C 19.5517 8.416 20.069 8.512 20.5384 8.704C 21.0184 8.896 21.429 9.168 21.7704 9.52C 22.1224 9.86133 22.3944 10.272 22.5864 10.752C 22.7784 11.2213 22.8744 11.7387 22.8744 12.304C 22.8744 12.8693 22.7784 13.392 22.5864 13.872C 22.3944 14.3413 22.1224 14.752 21.7704 15.104C 21.429 15.4453 21.0184 15.712 20.5384 15.904C 20.069 16.096 19.5517 16.192 18.9864 16.192C 18.421 16.192 17.8984 16.096 17.4184 15.904C 16.9384 15.712 16.5277 15.4453 16.1864 15.104C 15.845 14.752 15.5784 14.3413 15.3864 13.872C 15.1944 13.392 15.0984 12.8693 15.0984 12.304ZM 16.0584 12.304C 16.0584 12.72 16.1224 13.1147 16.2504 13.488C 16.389 13.8507 16.5864 14.1707 16.8424 14.448C 17.0984 14.7147 17.4077 14.928 17.7704 15.088C 18.133 15.248 18.5384 15.328 18.9864 15.328C 19.4344 15.328 19.8397 15.248 20.2024 15.088C 20.565 14.928 20.8744 14.7147 21.1304 14.448C 21.3864 14.1707 21.5784 13.8507 21.7064 13.488C 21.845 13.1147 21.9144 12.72 21.9144 12.304C 21.9144 11.888 21.845 11.4987 21.7064 11.136C 21.5784 10.7627 21.3864 10.4427 21.1304 10.176C 20.8744 9.89867 20.565 9.68 20.2024 9.52C 19.8397 9.36 19.4344 9.28 18.9864 9.28C 18.5384 9.28 18.133 9.36 17.7704 9.52C 17.4077 9.68 17.0984 9.89867 16.8424 10.176C 16.5864 10.4427 16.389 10.7627 16.2504 11.136C 16.1224 11.4987 16.0584 11.888 16.0584 12.304ZM 31.4784 14.704L 31.4464 14.704C 31.297 14.96 31.1104 15.184 30.8864 15.376C 30.6624 15.5573 30.417 15.712 30.1504 15.84C 29.8944 15.9573 29.6224 16.0427 29.3344 16.096C 29.0464 16.16 28.7637 16.192 28.4864 16.192C 27.921 16.192 27.3984 16.096 26.9184 15.904C 26.4384 15.712 26.0277 15.4453 25.6864 15.104C 25.345 14.752 25.0784 14.3413 24.8864 13.872C 24.6944 13.392 24.5984 12.8693 24.5984 12.304C 24.5984 11.7387 24.6944 11.2213 24.8864 10.752C 25.0784 10.272 25.345 9.86133 25.6864 9.52C 26.0277 9.168 26.4384 8.896 26.9184 8.704C 27.3984 8.512 27.921 8.416 28.4864 8.416C 28.7637 8.416 29.0464 8.448 29.3344 8.512C 29.6224 8.56533 29.8944 8.656 30.1504 8.784C 30.417 8.90133 30.6624 9.056 30.8864 9.248C 31.1104 9.42933 31.297 9.648 31.4464 9.904L 31.4784 9.904L 31.4784 3.904L 32.4384 3.904L 32.4384 16L 31.4784 16L 31.4784 14.704ZM 31.5744 12.304C 31.5744 11.888 31.4944 11.4987 31.3344 11.136C 31.1744 10.7627 30.9557 10.4427 30.6784 10.176C 30.401 9.89867 30.0757 9.68 29.7024 9.52C 29.329 9.36 28.9237 9.28 28.4864 9.28C 28.0384 9.28 27.633 9.36 27.2704 9.52C 26.9077 9.68 26.5984 9.89867 26.3424 10.176C 26.0864 10.4427 25.889 10.7627 25.7504 11.136C 25.6224 11.4987 25.5584 11.888 25.5584 12.304C 25.5584 12.72 25.6224 13.1147 25.7504 13.488C 25.889 13.8507 26.0864 14.1707 26.3424 14.448C 26.5984 14.7147 26.9077 14.928 27.2704 15.088C 27.633 15.248 28.0384 15.328 28.4864 15.328C 28.9237 15.328 29.329 15.248 29.7024 15.088C 30.0757 14.928 30.401 14.7147 30.6784 14.448C 30.9557 14.1707 31.1744 13.8507 31.3344 13.488C 31.4944 13.1147 31.5744 12.72 31.5744 12.304ZM 41.0516 13.92C 41.0516 14.0587 41.057 14.2293 41.0676 14.432C 41.0783 14.624 41.0836 14.8213 41.0836 15.024C 41.0943 15.2267 41.105 15.4187 41.1156 15.6C 41.1263 15.7707 41.1316 15.904 41.1316 16L 40.1716 16C 40.161 15.7227 40.1503 15.456 40.1396 15.2C 40.1396 14.944 40.129 14.7787 40.1076 14.704L 40.0596 14.704C 39.8676 15.1093 39.5476 15.4613 39.0996 15.76C 38.6516 16.048 38.129 16.192 37.5316 16.192C 36.9556 16.192 36.481 16.1013 36.1076 15.92C 35.745 15.7387 35.457 15.504 35.2436 15.216C 35.041 14.9173 34.9023 14.576 34.8276 14.192C 34.753 13.808 34.7156 13.4133 34.7156 13.008L 34.7156 8.608L 35.6756 8.608L 35.6756 12.96C 35.6756 13.2587 35.7023 13.552 35.7556 13.84C 35.809 14.1173 35.8996 14.368 36.0276 14.592C 36.1663 14.816 36.353 14.9973 36.5876 15.136C 36.833 15.264 37.1476 15.328 37.5316 15.328C 37.8836 15.328 38.2143 15.2693 38.5236 15.152C 38.8436 15.024 39.1156 14.8373 39.3396 14.592C 39.5743 14.336 39.7556 14.0213 39.8836 13.648C 40.0223 13.264 40.0916 12.816 40.0916 12.304L 40.0916 8.608L 41.0516 8.608L 41.0516 13.92ZM 49.8783 14.912C 49.5156 15.3493 49.1049 15.6747 48.6462 15.888C 48.1876 16.0907 47.6916 16.192 47.1582 16.192C 46.5929 16.192 46.0703 16.096 45.5903 15.904C 45.1102 15.712 44.6996 15.4453 44.3583 15.104C 44.0169 14.752 43.7502 14.3413 43.5582 13.872C 43.3662 13.392 43.2703 12.8693 43.2703 12.304C 43.2703 11.7387 43.3662 11.2213 43.5582 10.752C 43.7502 10.272 44.0169 9.86133 44.3583 9.52C 44.6996 9.168 45.1102 8.896 45.5903 8.704C 46.0703 8.512 46.5929 8.416 47.1582 8.416C 47.7023 8.416 48.2036 8.528 48.6623 8.752C 49.1316 8.976 49.5476 9.29067 49.9103 9.696L 49.1423 10.272C 48.8649 9.96267 48.5609 9.72267 48.2302 9.552C 47.8996 9.37067 47.5423 9.28 47.1582 9.28C 46.7102 9.28 46.3049 9.36 45.9423 9.52C 45.5796 9.68 45.2703 9.89867 45.0143 10.176C 44.7582 10.4427 44.5609 10.7627 44.4223 11.136C 44.2943 11.4987 44.2303 11.888 44.2303 12.304C 44.2303 12.72 44.2943 13.1147 44.4223 13.488C 44.5609 13.8507 44.7582 14.1707 45.0143 14.448C 45.2703 14.7147 45.5796 14.928 45.9423 15.088C 46.3049 15.248 46.7102 15.328 47.1582 15.328C 47.5636 15.328 47.9316 15.2373 48.2622 15.056C 48.6036 14.864 48.8969 14.6133 49.1423 14.304L 49.8783 14.912ZM 55.0054 9.472L 52.8934 9.472L 52.8934 14.288C 52.8934 14.6187 52.984 14.8747 53.1654 15.056C 53.3467 15.2373 53.5974 15.328 53.9174 15.328C 54.0987 15.328 54.28 15.3067 54.4614 15.264C 54.6534 15.2107 54.8347 15.1467 55.0054 15.072L 55.0854 15.936C 54.904 16 54.696 16.0587 54.4614 16.112C 54.2267 16.1653 54.0187 16.192 53.8374 16.192C 53.496 16.192 53.2027 16.1387 52.9574 16.032C 52.712 15.936 52.5147 15.8027 52.3654 15.632C 52.216 15.4613 52.104 15.264 52.0294 15.04C 51.9654 14.8053 51.9334 14.5547 51.9334 14.288L 51.9334 9.472L 50.3334 9.472L 50.3334 8.608L 51.9334 8.608L 51.9334 6.48L 52.8934 6.48L 52.8934 8.608L 55.0054 8.608L 55.0054 9.472ZM 61.0017 4.672L 64.5058 4.672C 65.4871 4.672 66.3191 4.79467 67.0017 5.04C 67.6844 5.27467 68.2498 5.57867 68.6978 5.952C 69.1564 6.32533 69.5138 6.74133 69.7697 7.2C 70.0364 7.648 70.2284 8.08 70.3457 8.496C 70.4738 8.912 70.5538 9.29067 70.5857 9.632C 70.6178 9.96267 70.6337 10.1973 70.6337 10.336C 70.6337 10.4747 70.6178 10.7147 70.5857 11.056C 70.5538 11.3867 70.4738 11.76 70.3457 12.176C 70.2284 12.592 70.0364 13.0293 69.7697 13.488C 69.5138 13.936 69.1564 14.3467 68.6978 14.72C 68.2498 15.0933 67.6844 15.4027 67.0017 15.648C 66.3191 15.8827 65.4871 16 64.5058 16L 61.0017 16L 61.0017 4.672ZM 62.0577 15.04L 64.2337 15.04C 64.9804 15.04 65.6791 14.9493 66.3298 14.768C 66.9804 14.576 67.5458 14.288 68.0258 13.904C 68.5057 13.52 68.8844 13.0347 69.1617 12.448C 69.4391 11.8507 69.5778 11.1467 69.5778 10.336C 69.5778 9.52533 69.4391 8.82667 69.1617 8.24C 68.8844 7.64267 68.5057 7.152 68.0258 6.768C 67.5458 6.384 66.9804 6.10133 66.3298 5.92C 65.6791 5.728 64.9804 5.632 64.2337 5.632L 62.0577 5.632L 62.0577 15.04ZM 79.2611 14.608C 78.8878 15.1733 78.4238 15.5787 77.8691 15.824C 77.3251 16.0693 76.7225 16.192 76.0611 16.192C 75.4958 16.192 74.9838 16.096 74.5251 15.904C 74.0665 15.712 73.6718 15.4453 73.3411 15.104C 73.0105 14.752 72.7545 14.3413 72.5731 13.872C 72.4025 13.392 72.3171 12.864 72.3171 12.288C 72.3171 11.7333 72.4078 11.2213 72.5891 10.752C 72.7705 10.2827 73.0265 9.87733 73.3571 9.536C 73.6878 9.184 74.0771 8.912 74.5251 8.72C 74.9731 8.51733 75.4691 8.416 76.0131 8.416C 76.5785 8.416 77.0745 8.51733 77.5011 8.72C 77.9385 8.912 78.3011 9.17333 78.5891 9.504C 78.8878 9.824 79.1118 10.192 79.2611 10.608C 79.4105 11.024 79.4851 11.4453 79.4851 11.872L 79.4851 12.544L 73.2771 12.544C 73.2771 12.7467 73.3145 13.008 73.3891 13.328C 73.4745 13.6373 73.6238 13.9413 73.8371 14.24C 74.0505 14.5387 74.3331 14.7947 74.6851 15.008C 75.0478 15.2213 75.5118 15.328 76.0771 15.328C 76.5678 15.328 77.0425 15.2107 77.5011 14.976C 77.9598 14.7413 78.3118 14.4213 78.5571 14.016L 79.2611 14.608ZM 78.5251 11.68C 78.5251 11.3493 78.4558 11.04 78.3171 10.752C 78.1891 10.464 78.0078 10.2133 77.7731 10C 77.5491 9.776 77.2771 9.6 76.9571 9.472C 76.6478 9.344 76.3171 9.28 75.9651 9.28C 75.4425 9.28 75.0051 9.38667 74.6531 9.6C 74.3118 9.81333 74.0398 10.0587 73.8371 10.336C 73.6345 10.6133 73.4905 10.8853 73.4051 11.152C 73.3198 11.408 73.2771 11.584 73.2771 11.68L 78.5251 11.68ZM 81.6398 14.112C 81.8424 14.5067 82.1411 14.8107 82.5357 15.024C 82.9304 15.2267 83.3464 15.328 83.7838 15.328C 83.9864 15.328 84.1891 15.296 84.3917 15.232C 84.5944 15.168 84.7758 15.0773 84.9358 14.96C 85.0957 14.8427 85.2238 14.704 85.3197 14.544C 85.4264 14.3733 85.4798 14.1813 85.4798 13.968C 85.4798 13.6267 85.3678 13.3707 85.1438 13.2C 84.9304 13.0293 84.6638 12.896 84.3438 12.8C 84.0238 12.704 83.6718 12.624 83.2878 12.56C 82.9037 12.4853 82.5517 12.3787 82.2318 12.24C 81.9117 12.0907 81.6398 11.888 81.4158 11.632C 81.2024 11.376 81.0957 11.0133 81.0957 10.544C 81.0957 10.1813 81.1704 9.86667 81.3198 9.6C 81.4691 9.33333 81.6611 9.11467 81.8958 8.944C 82.1411 8.76267 82.4131 8.62933 82.7118 8.544C 83.0104 8.45867 83.3144 8.416 83.6237 8.416C 84.2318 8.416 84.7544 8.528 85.1918 8.752C 85.6398 8.976 85.9864 9.328 86.2318 9.808L 85.3678 10.32C 85.1864 9.97867 84.9571 9.72267 84.6797 9.552C 84.4131 9.37067 84.0611 9.28 83.6237 9.28C 83.4531 9.28 83.2717 9.30667 83.0798 9.36C 82.8984 9.41333 82.7331 9.488 82.5838 9.584C 82.4344 9.68 82.3064 9.80267 82.1997 9.952C 82.1037 10.1013 82.0558 10.272 82.0558 10.464C 82.0558 10.7947 82.1624 11.04 82.3758 11.2C 82.5998 11.36 82.8718 11.488 83.1918 11.584C 83.5117 11.6693 83.8637 11.744 84.2478 11.808C 84.6318 11.872 84.9837 11.9787 85.3038 12.128C 85.6238 12.2667 85.8904 12.4747 86.1038 12.752C 86.3278 13.0187 86.4398 13.4027 86.4398 13.904C 86.4398 14.288 86.3651 14.624 86.2158 14.912C 86.0771 15.1893 85.8797 15.424 85.6238 15.616C 85.3784 15.808 85.0957 15.952 84.7758 16.048C 84.4557 16.144 84.1198 16.192 83.7678 16.192C 83.1277 16.192 82.5411 16.0693 82.0078 15.824C 81.4851 15.5787 81.0798 15.2 80.7918 14.688L 81.6398 14.112ZM 88.5963 8.608L 89.5563 8.608L 89.5563 16L 88.5963 16L 88.5963 8.608ZM 88.3563 5.68C 88.3563 5.47733 88.4256 5.30667 88.5642 5.168C 88.7029 5.02933 88.8736 4.96 89.0762 4.96C 89.2789 4.96 89.4496 5.02933 89.5882 5.168C 89.7269 5.30667 89.7963 5.47733 89.7963 5.68C 89.7963 5.88267 89.7269 6.05333 89.5882 6.192C 89.4496 6.33067 89.2789 6.4 89.0762 6.4C 88.8736 6.4 88.7029 6.33067 88.5642 6.192C 88.4256 6.05333 88.3563 5.88267 88.3563 5.68ZM 99.704 15.52C 99.704 16.4373 99.5707 17.1787 99.304 17.744C 99.0373 18.3093 98.7013 18.7467 98.296 19.056C 97.9013 19.3653 97.4747 19.5733 97.016 19.68C 96.5573 19.7867 96.1413 19.84 95.768 19.84C 95.3947 19.84 95.0267 19.8027 94.664 19.728C 94.312 19.664 93.976 19.5627 93.656 19.424C 93.336 19.296 93.0427 19.136 92.776 18.944C 92.52 18.752 92.296 18.5333 92.104 18.288L 92.856 17.584C 93.1973 18.064 93.624 18.416 94.136 18.64C 94.648 18.864 95.192 18.976 95.768 18.976C 96.2587 18.976 96.6693 18.912 97 18.784C 97.3413 18.656 97.6187 18.4853 97.832 18.272C 98.056 18.0693 98.2267 17.84 98.344 17.584C 98.472 17.3387 98.5627 17.088 98.616 16.832C 98.68 16.5867 98.7173 16.352 98.728 16.128C 98.7387 15.904 98.744 15.7227 98.744 15.584L 98.744 14.56L 98.712 14.56C 98.4347 15.008 98.056 15.36 97.576 15.616C 97.1067 15.872 96.552 16 95.912 16C 95.368 16 94.856 15.904 94.376 15.712C 93.896 15.5093 93.4747 15.2373 93.112 14.896C 92.76 14.544 92.4773 14.1387 92.264 13.68C 92.0613 13.2213 91.96 12.7307 91.96 12.208C 91.96 11.6853 92.0613 11.1947 92.264 10.736C 92.4773 10.2773 92.76 9.87733 93.112 9.536C 93.4747 9.19467 93.896 8.92267 94.376 8.72C 94.856 8.51733 95.368 8.416 95.912 8.416C 96.552 8.416 97.1067 8.544 97.576 8.8C 98.056 9.056 98.4347 9.408 98.712 9.856L 98.744 9.856L 98.744 8.608L 99.704 8.608L 99.704 15.52ZM 98.776 12.208C 98.776 11.8027 98.696 11.424 98.536 11.072C 98.3867 10.7093 98.1787 10.4 97.912 10.144C 97.656 9.87733 97.3467 9.66933 96.984 9.52C 96.632 9.36 96.2533 9.28 95.848 9.28C 95.4427 9.28 95.0587 9.36 94.696 9.52C 94.344 9.66933 94.0347 9.87733 93.768 10.144C 93.512 10.4 93.304 10.7093 93.144 11.072C 92.9947 11.424 92.92 11.8027 92.92 12.208C 92.92 12.6133 92.9947 12.9973 93.144 13.36C 93.304 13.712 93.512 14.0213 93.768 14.288C 94.0347 14.544 94.344 14.752 94.696 14.912C 95.0587 15.0613 95.4427 15.136 95.848 15.136C 96.2533 15.136 96.632 15.0613 96.984 14.912C 97.3467 14.752 97.656 14.544 97.912 14.288C 98.1787 14.0213 98.3867 13.712 98.536 13.36C 98.696 12.9973 98.776 12.6133 98.776 12.208ZM 102.061 10.688C 102.061 10.5493 102.056 10.384 102.045 10.192C 102.035 9.98933 102.024 9.78667 102.013 9.584C 102.013 9.38133 102.008 9.19467 101.997 9.024C 101.987 8.84267 101.981 8.704 101.981 8.608L 102.941 8.608C 102.952 8.88533 102.957 9.152 102.957 9.408C 102.968 9.664 102.984 9.82933 103.005 9.904L 103.053 9.904C 103.245 9.49867 103.565 9.152 104.013 8.864C 104.461 8.56533 104.984 8.416 105.581 8.416C 106.157 8.416 106.627 8.50667 106.989 8.688C 107.352 8.86933 107.635 9.10933 107.837 9.408C 108.051 9.696 108.195 10.032 108.269 10.416C 108.355 10.8 108.397 11.1947 108.397 11.6L 108.397 16L 107.437 16L 107.437 11.648C 107.437 11.3493 107.411 11.0613 107.357 10.784C 107.304 10.496 107.208 10.24 107.069 10.016C 106.941 9.792 106.755 9.616 106.509 9.488C 106.275 9.34933 105.965 9.28 105.581 9.28C 105.229 9.28 104.893 9.344 104.573 9.472C 104.264 9.58933 103.992 9.776 103.757 10.032C 103.533 10.2773 103.352 10.592 103.213 10.976C 103.085 11.3493 103.021 11.792 103.021 12.304L 103.021 16L 102.061 16L 102.061 10.688ZM 117.48 14.608C 117.107 15.1733 116.643 15.5787 116.088 15.824C 115.544 16.0693 114.941 16.192 114.28 16.192C 113.715 16.192 113.203 16.096 112.744 15.904C 112.285 15.712 111.891 15.4453 111.56 15.104C 111.229 14.752 110.973 14.3413 110.792 13.872C 110.621 13.392 110.536 12.864 110.536 12.288C 110.536 11.7333 110.627 11.2213 110.808 10.752C 110.989 10.2827 111.245 9.87733 111.576 9.536C 111.907 9.184 112.296 8.912 112.744 8.72C 113.192 8.51733 113.688 8.416 114.232 8.416C 114.797 8.416 115.293 8.51733 115.72 8.72C 116.157 8.912 116.52 9.17333 116.808 9.504C 117.107 9.824 117.331 10.192 117.48 10.608C 117.629 11.024 117.704 11.4453 117.704 11.872L 117.704 12.544L 111.496 12.544C 111.496 12.7467 111.533 13.008 111.608 13.328C 111.693 13.6373 111.843 13.9413 112.056 14.24C 112.269 14.5387 112.552 14.7947 112.904 15.008C 113.267 15.2213 113.731 15.328 114.296 15.328C 114.787 15.328 115.261 15.2107 115.72 14.976C 116.179 14.7413 116.531 14.4213 116.776 14.016L 117.48 14.608ZM 116.744 11.68C 116.744 11.3493 116.675 11.04 116.536 10.752C 116.408 10.464 116.227 10.2133 115.992 10C 115.768 9.776 115.496 9.6 115.176 9.472C 114.867 9.344 114.536 9.28 114.184 9.28C 113.661 9.28 113.224 9.38667 112.872 9.6C 112.531 9.81333 112.259 10.0587 112.056 10.336C 111.853 10.6133 111.709 10.8853 111.624 11.152C 111.539 11.408 111.496 11.584 111.496 11.68L 116.744 11.68ZM 119.842 10.688C 119.842 10.5493 119.837 10.384 119.827 10.192C 119.816 9.98933 119.805 9.78667 119.794 9.584C 119.794 9.38133 119.789 9.19467 119.778 9.024C 119.768 8.84267 119.763 8.704 119.763 8.608L 120.723 8.608C 120.733 8.88533 120.739 9.152 120.739 9.408C 120.749 9.664 120.765 9.82933 120.786 9.904C 121.032 9.46667 121.346 9.10933 121.73 8.832C 122.115 8.55467 122.584 8.416 123.139 8.416C 123.234 8.416 123.325 8.42667 123.411 8.448C 123.506 8.45867 123.602 8.47467 123.699 8.496L 123.587 9.44C 123.458 9.39733 123.336 9.376 123.219 9.376C 122.802 9.376 122.44 9.44533 122.131 9.584C 121.832 9.712 121.581 9.89333 121.378 10.128C 121.187 10.3627 121.043 10.64 120.947 10.96C 120.851 11.2693 120.803 11.6053 120.803 11.968L 120.803 16L 119.842 16L 119.842 10.688ZM 1.408 30.672L 4.912 30.672C 5.89333 30.672 6.72533 30.7947 7.408 31.04C 8.09067 31.2747 8.656 31.5787 9.104 31.952C 9.56267 32.3253 9.92 32.7413 10.176 33.2C 10.4427 33.648 10.6347 34.08 10.752 34.496C 10.88 34.912 10.96 35.2907 10.992 35.632C 11.024 35.9627 11.04 36.1973 11.04 36.336C 11.04 36.4747 11.024 36.7147 10.992 37.056C 10.96 37.3867 10.88 37.76 10.752 38.176C 10.6347 38.592 10.4427 39.0293 10.176 39.488C 9.92 39.936 9.56267 40.3467 9.104 40.72C 8.656 41.0933 8.09067 41.4027 7.408 41.648C 6.72533 41.8827 5.89333 42 4.912 42L 1.408 42L 1.408 30.672ZM 2.464 41.04L 4.64 41.04C 5.38667 41.04 6.08533 40.9493 6.736 40.768C 7.38667 40.576 7.952 40.288 8.432 39.904C 8.912 39.52 9.29067 39.0347 9.568 38.448C 9.84533 37.8507 9.984 37.1467 9.984 36.336C 9.984 35.5253 9.84533 34.8267 9.568 34.24C 9.29067 33.6427 8.912 33.152 8.432 32.768C 7.952 32.384 7.38667 32.1013 6.736 31.92C 6.08533 31.728 5.38667 31.632 4.64 31.632L 2.464 31.632L 2.464 41.04ZM 13.2994 34.608L 14.2594 34.608L 14.2594 42L 13.2994 42L 13.2994 34.608ZM 13.0594 31.68C 13.0594 31.4773 13.1287 31.3067 13.2674 31.168C 13.406 31.0293 13.5767 30.96 13.7794 30.96C 13.982 30.96 14.1527 31.0293 14.2914 31.168C 14.43 31.3067 14.4994 31.4773 14.4994 31.68C 14.4994 31.8827 14.43 32.0533 14.2914 32.192C 14.1527 32.3307 13.982 32.4 13.7794 32.4C 13.5767 32.4 13.406 32.3307 13.2674 32.192C 13.1287 32.0533 13.0594 31.8827 13.0594 31.68ZM 24.4071 41.52C 24.4071 42.4373 24.2738 43.1787 24.0071 43.744C 23.7405 44.3093 23.4045 44.7467 22.9991 45.056C 22.6045 45.3653 22.1778 45.5733 21.7191 45.68C 21.2605 45.7867 20.8445 45.84 20.4711 45.84C 20.0978 45.84 19.7298 45.8027 19.3671 45.728C 19.0151 45.664 18.6791 45.5627 18.3591 45.424C 18.0391 45.296 17.7458 45.136 17.4791 44.944C 17.2231 44.752 16.9991 44.5333 16.8071 44.288L 17.5591 43.584C 17.9005 44.064 18.3271 44.416 18.8391 44.64C 19.3511 44.864 19.8951 44.976 20.4711 44.976C 20.9618 44.976 21.3725 44.912 21.7031 44.784C 22.0445 44.656 22.3218 44.4853 22.5351 44.272C 22.7591 44.0693 22.9298 43.84 23.0471 43.584C 23.1751 43.3387 23.2658 43.088 23.3191 42.832C 23.3831 42.5867 23.4205 42.352 23.4311 42.128C 23.4418 41.904 23.4471 41.7227 23.4471 41.584L 23.4471 40.56L 23.4151 40.56C 23.1378 41.008 22.7591 41.36 22.2791 41.616C 21.8098 41.872 21.2551 42 20.6151 42C 20.0711 42 19.5591 41.904 19.0791 41.712C 18.5991 41.5093 18.1778 41.2373 17.8151 40.896C 17.4631 40.544 17.1805 40.1387 16.9671 39.68C 16.7645 39.2213 16.6631 38.7307 16.6631 38.208C 16.6631 37.6853 16.7645 37.1947 16.9671 36.736C 17.1805 36.2773 17.4631 35.8773 17.8151 35.536C 18.1778 35.1947 18.5991 34.9227 19.0791 34.72C 19.5591 34.5173 20.0711 34.416 20.6151 34.416C 21.2551 34.416 21.8098 34.544 22.2791 34.8C 22.7591 35.056 23.1378 35.408 23.4151 35.856L 23.4471 35.856L 23.4471 34.608L 24.4071 34.608L 24.4071 41.52ZM 23.4791 38.208C 23.4791 37.8027 23.3991 37.424 23.2391 37.072C 23.0898 36.7093 22.8818 36.4 22.6151 36.144C 22.3591 35.8773 22.0498 35.6693 21.6871 35.52C 21.3351 35.36 20.9565 35.28 20.5511 35.28C 20.1458 35.28 19.7618 35.36 19.3991 35.52C 19.0471 35.6693 18.7378 35.8773 18.4711 36.144C 18.2151 36.4 18.0071 36.7093 17.8471 37.072C 17.6978 37.424 17.6231 37.8027 17.6231 38.208C 17.6231 38.6133 17.6978 38.9973 17.8471 39.36C 18.0071 39.712 18.2151 40.0213 18.4711 40.288C 18.7378 40.544 19.0471 40.752 19.3991 40.912C 19.7618 41.0613 20.1458 41.136 20.5511 41.136C 20.9565 41.136 21.3351 41.0613 21.6871 40.912C 22.0498 40.752 22.3591 40.544 22.6151 40.288C 22.8818 40.0213 23.0898 39.712 23.2391 39.36C 23.3991 38.9973 23.4791 38.6133 23.4791 38.208ZM 26.9244 34.608L 27.8844 34.608L 27.8844 42L 26.9244 42L 26.9244 34.608ZM 26.6844 31.68C 26.6844 31.4773 26.7537 31.3067 26.8924 31.168C 27.031 31.0293 27.2017 30.96 27.4044 30.96C 27.607 30.96 27.7777 31.0293 27.9164 31.168C 28.055 31.3067 28.1244 31.4773 28.1244 31.68C 28.1244 31.8827 28.055 32.0533 27.9164 32.192C 27.7777 32.3307 27.607 32.4 27.4044 32.4C 27.2017 32.4 27.031 32.3307 26.8924 32.192C 26.7537 32.0533 26.6844 31.8827 26.6844 31.68ZM 34.2241 35.472L 32.1121 35.472L 32.1121 40.288C 32.1121 40.6187 32.2028 40.8747 32.3841 41.056C 32.5655 41.2373 32.8161 41.328 33.1361 41.328C 33.3175 41.328 33.4988 41.3067 33.6801 41.264C 33.8721 41.2107 34.0535 41.1467 34.2241 41.072L 34.3041 41.936C 34.1228 42 33.9148 42.0587 33.6801 42.112C 33.4455 42.1653 33.2375 42.192 33.0561 42.192C 32.7148 42.192 32.4215 42.1387 32.1761 42.032C 31.9308 41.936 31.7335 41.8027 31.5841 41.632C 31.4348 41.4613 31.3228 41.264 31.2481 41.04C 31.1841 40.8053 31.1521 40.5547 31.1521 40.288L 31.1521 35.472L 29.5521 35.472L 29.5521 34.608L 31.1521 34.608L 31.1521 32.48L 32.1121 32.48L 32.1121 34.608L 34.2241 34.608L 34.2241 35.472ZM 41.6803 38.896C 41.6803 39.2587 41.6803 39.584 41.6803 39.872C 41.6909 40.16 41.7016 40.4267 41.7123 40.672C 41.7229 40.9173 41.7336 41.1467 41.7442 41.36C 41.7656 41.5733 41.7923 41.7867 41.8243 42L 40.9282 42C 40.8643 41.6373 40.8323 41.2373 40.8323 40.8L 40.8003 40.8C 40.5229 41.28 40.1762 41.632 39.7603 41.856C 39.3549 42.08 38.8376 42.192 38.2083 42.192C 37.8883 42.192 37.5736 42.1493 37.2643 42.064C 36.9549 41.9893 36.6776 41.8667 36.4323 41.696C 36.1869 41.5147 35.9842 41.2853 35.8242 41.008C 35.6749 40.7307 35.6003 40.3947 35.6003 40C 35.6003 39.4347 35.7443 38.9867 36.0323 38.656C 36.3203 38.3253 36.6723 38.08 37.0882 37.92C 37.5149 37.7493 37.9629 37.6427 38.4323 37.6C 38.9123 37.5467 39.3336 37.52 39.6962 37.52L 40.8162 37.52L 40.8162 37.072C 40.8162 36.432 40.6189 35.9733 40.2242 35.696C 39.8296 35.4187 39.3336 35.28 38.7362 35.28C 37.8829 35.28 37.1309 35.5573 36.4803 36.112L 35.9203 35.456C 36.2723 35.1147 36.7096 34.8587 37.2322 34.688C 37.7549 34.5067 38.2562 34.416 38.7362 34.416C 39.6322 34.416 40.3469 34.6293 40.8802 35.056C 41.4136 35.472 41.6803 36.1493 41.6803 37.088L 41.6803 38.896ZM 39.7603 38.288C 39.3549 38.288 38.9602 38.3147 38.5763 38.368C 38.2029 38.4213 37.8616 38.512 37.5522 38.64C 37.2536 38.768 37.0136 38.9387 36.8323 39.152C 36.6509 39.3653 36.5603 39.632 36.5603 39.952C 36.5603 40.176 36.6083 40.3787 36.7043 40.56C 36.8109 40.7307 36.9443 40.8747 37.1042 40.992C 37.2643 41.0987 37.4402 41.184 37.6323 41.248C 37.8349 41.3013 38.0376 41.328 38.2403 41.328C 38.7523 41.328 39.1736 41.2533 39.5043 41.104C 39.8349 40.9547 40.0963 40.7627 40.2882 40.528C 40.4909 40.2827 40.6296 40.0107 40.7042 39.712C 40.7789 39.4027 40.8162 39.0933 40.8162 38.784L 40.8162 38.288L 39.7603 38.288ZM 44.3931 29.904L 45.3531 29.904L 45.3531 42L 44.3931 42L 44.3931 29.904ZM 52.5051 30.672L 53.5611 30.672L 53.5611 42L 52.5051 42L 52.5051 30.672ZM 56.5494 29.904L 57.5094 29.904L 57.5094 42L 56.5494 42L 56.5494 29.904ZM 60.4088 29.904L 61.3688 29.904L 61.3688 42L 60.4088 42L 60.4088 29.904ZM 70.3485 39.92C 70.3485 40.0587 70.3538 40.2293 70.3645 40.432C 70.3752 40.624 70.3805 40.8213 70.3805 41.024C 70.3912 41.2267 70.4018 41.4187 70.4125 41.6C 70.4232 41.7707 70.4285 41.904 70.4285 42L 69.4685 42C 69.4578 41.7227 69.4472 41.456 69.4365 41.2C 69.4365 40.944 69.4258 40.7787 69.4045 40.704L 69.3565 40.704C 69.1645 41.1093 68.8445 41.4613 68.3965 41.76C 67.9485 42.048 67.4258 42.192 66.8285 42.192C 66.2525 42.192 65.7778 42.1013 65.4045 41.92C 65.0418 41.7387 64.7538 41.504 64.5405 41.216C 64.3378 40.9173 64.1992 40.576 64.1245 40.192C 64.0498 39.808 64.0125 39.4133 64.0125 39.008L 64.0125 34.608L 64.9725 34.608L 64.9725 38.96C 64.9725 39.2587 64.9992 39.552 65.0525 39.84C 65.1058 40.1173 65.1965 40.368 65.3245 40.592C 65.4632 40.816 65.6498 40.9973 65.8845 41.136C 66.1298 41.264 66.4445 41.328 66.8285 41.328C 67.1805 41.328 67.5112 41.2693 67.8205 41.152C 68.1405 41.024 68.4125 40.8373 68.6365 40.592C 68.8712 40.336 69.0525 40.0213 69.1805 39.648C 69.3192 39.264 69.3885 38.816 69.3885 38.304L 69.3885 34.608L 70.3485 34.608L 70.3485 39.92ZM 72.9991 40.112C 73.2018 40.5067 73.5005 40.8107 73.8951 41.024C 74.2898 41.2267 74.7058 41.328 75.1431 41.328C 75.3458 41.328 75.5485 41.296 75.7511 41.232C 75.9538 41.168 76.1351 41.0773 76.2951 40.96C 76.4551 40.8427 76.5831 40.704 76.6791 40.544C 76.7858 40.3733 76.8391 40.1813 76.8391 39.968C 76.8391 39.6267 76.7271 39.3707 76.5031 39.2C 76.2898 39.0293 76.0231 38.896 75.7031 38.8C 75.3831 38.704 75.0311 38.624 74.6471 38.56C 74.2631 38.4853 73.9111 38.3787 73.5911 38.24C 73.2711 38.0907 72.9991 37.888 72.7751 37.632C 72.5618 37.376 72.4551 37.0133 72.4551 36.544C 72.4551 36.1813 72.5298 35.8667 72.6791 35.6C 72.8285 35.3333 73.0205 35.1147 73.2551 34.944C 73.5005 34.7627 73.7725 34.6293 74.0711 34.544C 74.3698 34.4587 74.6738 34.416 74.9831 34.416C 75.5911 34.416 76.1138 34.528 76.5511 34.752C 76.9991 34.976 77.3458 35.328 77.5911 35.808L 76.7271 36.32C 76.5458 35.9787 76.3165 35.7227 76.0391 35.552C 75.7725 35.3707 75.4205 35.28 74.9831 35.28C 74.8125 35.28 74.6311 35.3067 74.4391 35.36C 74.2578 35.4133 74.0925 35.488 73.9431 35.584C 73.7938 35.68 73.6658 35.8027 73.5591 35.952C 73.4631 36.1013 73.4151 36.272 73.4151 36.464C 73.4151 36.7947 73.5218 37.04 73.7351 37.2C 73.9591 37.36 74.2311 37.488 74.5511 37.584C 74.8711 37.6693 75.2231 37.744 75.6071 37.808C 75.9911 37.872 76.3431 37.9787 76.6631 38.128C 76.9831 38.2667 77.2498 38.4747 77.4631 38.752C 77.6871 39.0187 77.7991 39.4027 77.7991 39.904C 77.7991 40.288 77.7245 40.624 77.5751 40.912C 77.4365 41.1893 77.2391 41.424 76.9831 41.616C 76.7378 41.808 76.4551 41.952 76.1351 42.048C 75.8151 42.144 75.4791 42.192 75.1271 42.192C 74.4871 42.192 73.9005 42.0693 73.3671 41.824C 72.8445 41.5787 72.4391 41.2 72.1511 40.688L 72.9991 40.112ZM 83.4116 35.472L 81.2996 35.472L 81.2996 40.288C 81.2996 40.6187 81.3903 40.8747 81.5716 41.056C 81.753 41.2373 82.0036 41.328 82.3236 41.328C 82.505 41.328 82.6863 41.3067 82.8676 41.264C 83.0596 41.2107 83.241 41.1467 83.4116 41.072L 83.4916 41.936C 83.3103 42 83.1023 42.0587 82.8676 42.112C 82.633 42.1653 82.425 42.192 82.2436 42.192C 81.9023 42.192 81.609 42.1387 81.3636 42.032C 81.1183 41.936 80.921 41.8027 80.7716 41.632C 80.6223 41.4613 80.5103 41.264 80.4356 41.04C 80.3716 40.8053 80.3396 40.5547 80.3396 40.288L 80.3396 35.472L 78.7396 35.472L 78.7396 34.608L 80.3396 34.608L 80.3396 32.48L 81.2996 32.48L 81.2996 34.608L 83.4116 34.608L 83.4116 35.472ZM 85.1237 36.688C 85.1237 36.5493 85.1184 36.384 85.1078 36.192C 85.0971 35.9893 85.0864 35.7867 85.0757 35.584C 85.0757 35.3813 85.0704 35.1947 85.0597 35.024C 85.0491 34.8427 85.0438 34.704 85.0438 34.608L 86.0038 34.608C 86.0144 34.8853 86.0198 35.152 86.0198 35.408C 86.0304 35.664 86.0464 35.8293 86.0677 35.904C 86.3131 35.4667 86.6277 35.1093 87.0117 34.832C 87.3958 34.5547 87.8651 34.416 88.4198 34.416C 88.5157 34.416 88.6064 34.4267 88.6918 34.448C 88.7877 34.4587 88.8837 34.4747 88.9798 34.496L 88.8678 35.44C 88.7397 35.3973 88.6171 35.376 88.4998 35.376C 88.0837 35.376 87.7211 35.4453 87.4118 35.584C 87.1131 35.712 86.8624 35.8933 86.6597 36.128C 86.4678 36.3627 86.3238 36.64 86.2278 36.96C 86.1318 37.2693 86.0838 37.6053 86.0838 37.968L 86.0838 42L 85.1237 42L 85.1237 36.688ZM 96.1959 38.896C 96.1959 39.2587 96.1959 39.584 96.1959 39.872C 96.2065 40.16 96.2172 40.4267 96.2279 40.672C 96.2385 40.9173 96.2492 41.1467 96.2599 41.36C 96.2812 41.5733 96.3079 41.7867 96.3399 42L 95.4439 42C 95.3799 41.6373 95.3479 41.2373 95.3479 40.8L 95.3159 40.8C 95.0385 41.28 94.6919 41.632 94.2759 41.856C 93.8705 42.08 93.3532 42.192 92.7239 42.192C 92.4039 42.192 92.0892 42.1493 91.7799 42.064C 91.4705 41.9893 91.1932 41.8667 90.9479 41.696C 90.7025 41.5147 90.4999 41.2853 90.3399 41.008C 90.1905 40.7307 90.1159 40.3947 90.1159 40C 90.1159 39.4347 90.2599 38.9867 90.5479 38.656C 90.8359 38.3253 91.1879 38.08 91.6039 37.92C 92.0305 37.7493 92.4785 37.6427 92.9479 37.6C 93.4279 37.5467 93.8492 37.52 94.2119 37.52L 95.3319 37.52L 95.3319 37.072C 95.3319 36.432 95.1345 35.9733 94.7399 35.696C 94.3452 35.4187 93.8492 35.28 93.2519 35.28C 92.3985 35.28 91.6465 35.5573 90.9959 36.112L 90.4359 35.456C 90.7879 35.1147 91.2252 34.8587 91.7479 34.688C 92.2705 34.5067 92.7719 34.416 93.2519 34.416C 94.1479 34.416 94.8625 34.6293 95.3959 35.056C 95.9292 35.472 96.1959 36.1493 96.1959 37.088L 96.1959 38.896ZM 94.2759 38.288C 93.8705 38.288 93.4759 38.3147 93.0919 38.368C 92.7185 38.4213 92.3772 38.512 92.0679 38.64C 91.7692 38.768 91.5292 38.9387 91.3479 39.152C 91.1665 39.3653 91.0759 39.632 91.0759 39.952C 91.0759 40.176 91.1239 40.3787 91.2199 40.56C 91.3265 40.7307 91.4599 40.8747 91.6199 40.992C 91.7799 41.0987 91.9559 41.184 92.1479 41.248C 92.3505 41.3013 92.5532 41.328 92.7559 41.328C 93.2679 41.328 93.6892 41.2533 94.0199 41.104C 94.3505 40.9547 94.6119 40.7627 94.8039 40.528C 95.0065 40.2827 95.1452 40.0107 95.2199 39.712C 95.2945 39.4027 95.3319 39.0933 95.3319 38.784L 95.3319 38.288L 94.2759 38.288ZM 102.365 35.472L 100.253 35.472L 100.253 40.288C 100.253 40.6187 100.343 40.8747 100.525 41.056C 100.706 41.2373 100.957 41.328 101.277 41.328C 101.458 41.328 101.639 41.3067 101.821 41.264C 102.013 41.2107 102.194 41.1467 102.365 41.072L 102.445 41.936C 102.263 42 102.055 42.0587 101.821 42.112C 101.586 42.1653 101.378 42.192 101.197 42.192C 100.855 42.192 100.562 42.1387 100.317 42.032C 100.071 41.936 99.8741 41.8027 99.7248 41.632C 99.5754 41.4613 99.4634 41.264 99.3887 41.04C 99.3247 40.8053 99.2928 40.5547 99.2928 40.288L 99.2928 35.472L 97.6928 35.472L 97.6928 34.608L 99.2928 34.608L 99.2928 32.48L 100.253 32.48L 100.253 34.608L 102.365 34.608L 102.365 35.472ZM 103.661 38.304C 103.661 37.7387 103.757 37.2213 103.949 36.752C 104.141 36.272 104.408 35.8613 104.749 35.52C 105.09 35.168 105.501 34.896 105.981 34.704C 106.461 34.512 106.984 34.416 107.549 34.416C 108.114 34.416 108.632 34.512 109.101 34.704C 109.581 34.896 109.992 35.168 110.333 35.52C 110.685 35.8613 110.957 36.272 111.149 36.752C 111.341 37.2213 111.437 37.7387 111.437 38.304C 111.437 38.8693 111.341 39.392 111.149 39.872C 110.957 40.3413 110.685 40.752 110.333 41.104C 109.992 41.4453 109.581 41.712 109.101 41.904C 108.632 42.096 108.114 42.192 107.549 42.192C 106.984 42.192 106.461 42.096 105.981 41.904C 105.501 41.712 105.09 41.4453 104.749 41.104C 104.408 40.752 104.141 40.3413 103.949 39.872C 103.757 39.392 103.661 38.8693 103.661 38.304ZM 104.621 38.304C 104.621 38.72 104.685 39.1147 104.813 39.488C 104.952 39.8507 105.149 40.1707 105.405 40.448C 105.661 40.7147 105.97 40.928 106.333 41.088C 106.696 41.248 107.101 41.328 107.549 41.328C 107.997 41.328 108.402 41.248 108.765 41.088C 109.128 40.928 109.437 40.7147 109.693 40.448C 109.949 40.1707 110.141 39.8507 110.269 39.488C 110.408 39.1147 110.477 38.72 110.477 38.304C 110.477 37.888 110.408 37.4987 110.269 37.136C 110.141 36.7627 109.949 36.4427 109.693 36.176C 109.437 35.8987 109.128 35.68 108.765 35.52C 108.402 35.36 107.997 35.28 107.549 35.28C 107.101 35.28 106.696 35.36 106.333 35.52C 105.97 35.68 105.661 35.8987 105.405 36.176C 105.149 36.4427 104.952 36.7627 104.813 37.136C 104.685 37.4987 104.621 37.888 104.621 38.304ZM 113.577 36.688C 113.577 36.5493 113.572 36.384 113.561 36.192C 113.55 35.9893 113.54 35.7867 113.529 35.584C 113.529 35.3813 113.524 35.1947 113.513 35.024C 113.502 34.8427 113.497 34.704 113.497 34.608L 114.457 34.608C 114.468 34.8853 114.473 35.152 114.473 35.408C 114.484 35.664 114.5 35.8293 114.521 35.904C 114.766 35.4667 115.081 35.1093 115.465 34.832C 115.849 34.5547 116.318 34.416 116.873 34.416C 116.969 34.416 117.06 34.4267 117.145 34.448C 117.241 34.4587 117.337 34.4747 117.433 34.496L 117.321 35.44C 117.193 35.3973 117.07 35.376 116.953 35.376C 116.537 35.376 116.174 35.4453 115.865 35.584C 115.566 35.712 115.316 35.8933 115.113 36.128C 114.921 36.3627 114.777 36.64 114.681 36.96C 114.585 37.2693 114.537 37.6053 114.537 37.968L 114.537 42L 113.577 42L 113.577 36.688ZM 1.44 60.608L 2.4 60.608L 2.4 68L 1.44 68L 1.44 60.608ZM 1.2 57.68C 1.2 57.4773 1.26933 57.3067 1.408 57.168C 1.54667 57.0293 1.71733 56.96 1.92 56.96C 2.12267 56.96 2.29333 57.0293 2.432 57.168C 2.57067 57.3067 2.64 57.4773 2.64 57.68C 2.64 57.8827 2.57067 58.0533 2.432 58.192C 2.29333 58.3307 2.12267 58.4 1.92 58.4C 1.71733 58.4 1.54667 58.3307 1.408 58.192C 1.26933 58.0533 1.2 57.8827 1.2 57.68ZM 4.65975 62.336C 4.65975 61.472 4.80375 60.6773 5.09175 59.952C 5.37975 59.2267 5.77975 58.6027 6.29175 58.08C 6.80375 57.5467 7.41708 57.1307 8.13175 56.832C 8.85708 56.5333 9.65175 56.384 10.5157 56.384C 11.3797 56.384 12.1691 56.5333 12.8837 56.832C 13.6091 57.1307 14.2277 57.5467 14.7397 58.08C 15.2517 58.6027 15.6517 59.2267 15.9397 59.952C 16.2277 60.6773 16.3717 61.472 16.3717 62.336C 16.3717 63.2 16.2277 64 15.9397 64.736C 15.6517 65.4613 15.2517 66.0907 14.7397 66.624C 14.2277 67.1467 13.6091 67.5573 12.8837 67.856C 12.1691 68.144 11.3797 68.288 10.5157 68.288C 9.65175 68.288 8.85708 68.144 8.13175 67.856C 7.41708 67.5573 6.80375 67.1467 6.29175 66.624C 5.77975 66.0907 5.37975 65.4613 5.09175 64.736C 4.80375 64 4.65975 63.2 4.65975 62.336ZM 5.71575 62.336C 5.71575 63.04 5.82775 63.696 6.05175 64.304C 6.27575 64.912 6.59575 65.44 7.01175 65.888C 7.42775 66.336 7.92908 66.688 8.51575 66.944C 9.11308 67.2 9.77975 67.328 10.5157 67.328C 11.2517 67.328 11.9131 67.2 12.4998 66.944C 13.0971 66.688 13.6038 66.336 14.0197 65.888C 14.4358 65.44 14.7557 64.912 14.9797 64.304C 15.2037 63.696 15.3158 63.04 15.3158 62.336C 15.3158 61.632 15.2037 60.976 14.9797 60.368C 14.7557 59.76 14.4358 59.232 14.0197 58.784C 13.6038 58.336 13.0971 57.984 12.4998 57.728C 11.9131 57.472 11.2517 57.344 10.5157 57.344C 9.77975 57.344 9.11308 57.472 8.51575 57.728C 7.92908 57.984 7.42775 58.336 7.01175 58.784C 6.59575 59.232 6.27575 59.76 6.05175 60.368C 5.82775 60.976 5.71575 61.632 5.71575 62.336ZM 19.0435 65.904C 19.3208 66.384 19.6782 66.7413 20.1155 66.976C 20.5635 67.2107 21.0702 67.328 21.6355 67.328C 21.9875 67.328 22.3182 67.2747 22.6275 67.168C 22.9368 67.0613 23.2035 66.912 23.4275 66.72C 23.6622 66.528 23.8435 66.2987 23.9715 66.032C 24.1102 65.7547 24.1795 65.4453 24.1795 65.104C 24.1795 64.7093 24.0942 64.384 23.9235 64.128C 23.7635 63.872 23.5448 63.664 23.2675 63.504C 22.9902 63.3333 22.6755 63.1893 22.3235 63.072C 21.9822 62.9547 21.6248 62.8373 21.2515 62.72C 20.8888 62.6027 20.5315 62.4693 20.1795 62.32C 19.8382 62.1707 19.5288 61.9787 19.2515 61.744C 18.9742 61.4987 18.7502 61.1947 18.5795 60.832C 18.4195 60.4693 18.3395 60.0213 18.3395 59.488C 18.3395 58.9867 18.4355 58.544 18.6275 58.16C 18.8302 57.7653 19.0968 57.44 19.4275 57.184C 19.7688 56.9173 20.1582 56.72 20.5955 56.592C 21.0328 56.4533 21.4915 56.384 21.9715 56.384C 22.5902 56.384 23.1608 56.496 23.6835 56.72C 24.2168 56.9333 24.6755 57.296 25.0595 57.808L 24.1475 58.464C 23.8808 58.0907 23.5662 57.8133 23.2035 57.632C 22.8515 57.44 22.4302 57.344 21.9395 57.344C 21.5982 57.344 21.2728 57.392 20.9635 57.488C 20.6542 57.5733 20.3822 57.7067 20.1475 57.888C 19.9235 58.0587 19.7422 58.2773 19.6035 58.544C 19.4648 58.8107 19.3955 59.1253 19.3955 59.488C 19.3955 60.0533 19.5395 60.4907 19.8275 60.8C 20.1155 61.0987 20.4728 61.3387 20.8995 61.52C 21.3368 61.6907 21.8062 61.8453 22.3075 61.984C 22.8195 62.112 23.2888 62.288 23.7155 62.512C 24.1528 62.736 24.5155 63.0507 24.8035 63.456C 25.0915 63.8507 25.2355 64.4 25.2355 65.104C 25.2355 65.616 25.1395 66.0693 24.9475 66.464C 24.7555 66.8587 24.4942 67.1947 24.1635 67.472C 23.8435 67.7387 23.4702 67.9413 23.0435 68.08C 22.6168 68.2187 22.1742 68.288 21.7155 68.288C 20.9688 68.288 20.2808 68.16 19.6515 67.904C 19.0222 67.6373 18.4835 67.1947 18.0355 66.576L 19.0435 65.904ZM 31.6424 56.672L 35.1464 56.672C 36.1277 56.672 36.9597 56.7947 37.6424 57.04C 38.325 57.2747 38.8904 57.5787 39.3384 57.952C 39.797 58.3253 40.1544 58.7413 40.4104 59.2C 40.677 59.648 40.869 60.08 40.9864 60.496C 41.1144 60.912 41.1944 61.2907 41.2264 61.632C 41.2584 61.9627 41.2744 62.1973 41.2744 62.336C 41.2744 62.4747 41.2584 62.7147 41.2264 63.056C 41.1944 63.3867 41.1144 63.76 40.9864 64.176C 40.869 64.592 40.677 65.0293 40.4104 65.488C 40.1544 65.936 39.797 66.3467 39.3384 66.72C 38.8904 67.0933 38.325 67.4027 37.6424 67.648C 36.9597 67.8827 36.1277 68 35.1464 68L 31.6424 68L 31.6424 56.672ZM 32.6984 67.04L 34.8744 67.04C 35.621 67.04 36.3197 66.9493 36.9704 66.768C 37.621 66.576 38.1864 66.288 38.6664 65.904C 39.1464 65.52 39.525 65.0347 39.8024 64.448C 40.0797 63.8507 40.2184 63.1467 40.2184 62.336C 40.2184 61.5253 40.0797 60.8267 39.8024 60.24C 39.525 59.6427 39.1464 59.152 38.6664 58.768C 38.1864 58.384 37.621 58.1013 36.9704 57.92C 36.3197 57.728 35.621 57.632 34.8744 57.632L 32.6984 57.632L 32.6984 67.04ZM 49.9018 66.608C 49.5284 67.1733 49.0644 67.5787 48.5097 67.824C 47.9658 68.0693 47.3631 68.192 46.7017 68.192C 46.1364 68.192 45.6244 68.096 45.1658 67.904C 44.7071 67.712 44.3124 67.4453 43.9818 67.104C 43.6511 66.752 43.3951 66.3413 43.2138 65.872C 43.0431 65.392 42.9578 64.864 42.9578 64.288C 42.9578 63.7333 43.0484 63.2213 43.2298 62.752C 43.4111 62.2827 43.6671 61.8773 43.9978 61.536C 44.3284 61.184 44.7178 60.912 45.1658 60.72C 45.6137 60.5173 46.1097 60.416 46.6537 60.416C 47.2191 60.416 47.7151 60.5173 48.1417 60.72C 48.5791 60.912 48.9418 61.1733 49.2298 61.504C 49.5284 61.824 49.7524 62.192 49.9018 62.608C 50.0511 63.024 50.1257 63.4453 50.1257 63.872L 50.1257 64.544L 43.9178 64.544C 43.9178 64.7467 43.9551 65.008 44.0297 65.328C 44.1151 65.6373 44.2644 65.9413 44.4778 66.24C 44.6911 66.5387 44.9738 66.7947 45.3258 67.008C 45.6884 67.2213 46.1524 67.328 46.7178 67.328C 47.2084 67.328 47.6831 67.2107 48.1417 66.976C 48.6004 66.7413 48.9524 66.4213 49.1978 66.016L 49.9018 66.608ZM 49.1658 63.68C 49.1658 63.3493 49.0964 63.04 48.9577 62.752C 48.8298 62.464 48.6484 62.2133 48.4138 62C 48.1898 61.776 47.9177 61.6 47.5978 61.472C 47.2884 61.344 46.9577 61.28 46.6058 61.28C 46.0831 61.28 45.6458 61.3867 45.2938 61.6C 44.9524 61.8133 44.6804 62.0587 44.4778 62.336C 44.2751 62.6133 44.1311 62.8853 44.0458 63.152C 43.9604 63.408 43.9178 63.584 43.9178 63.68L 49.1658 63.68ZM 51.2244 60.608L 52.3124 60.608L 54.7764 66.96L 57.1764 60.608L 58.1524 60.608L 55.2404 68L 54.2484 68L 51.2244 60.608ZM 66.1986 66.608C 65.8253 67.1733 65.3613 67.5787 64.8066 67.824C 64.2626 68.0693 63.66 68.192 62.9986 68.192C 62.4333 68.192 61.9213 68.096 61.4626 67.904C 61.004 67.712 60.6093 67.4453 60.2786 67.104C 59.948 66.752 59.692 66.3413 59.5106 65.872C 59.34 65.392 59.2546 64.864 59.2546 64.288C 59.2546 63.7333 59.3453 63.2213 59.5266 62.752C 59.708 62.2827 59.964 61.8773 60.2946 61.536C 60.6253 61.184 61.0146 60.912 61.4626 60.72C 61.9106 60.5173 62.4066 60.416 62.9506 60.416C 63.516 60.416 64.012 60.5173 64.4386 60.72C 64.876 60.912 65.2386 61.1733 65.5266 61.504C 65.8253 61.824 66.0493 62.192 66.1986 62.608C 66.348 63.024 66.4226 63.4453 66.4226 63.872L 66.4226 64.544L 60.2146 64.544C 60.2146 64.7467 60.252 65.008 60.3266 65.328C 60.412 65.6373 60.5613 65.9413 60.7746 66.24C 60.988 66.5387 61.2706 66.7947 61.6226 67.008C 61.9853 67.2213 62.4493 67.328 63.0146 67.328C 63.5053 67.328 63.98 67.2107 64.4386 66.976C 64.8973 66.7413 65.2493 66.4213 65.4946 66.016L 66.1986 66.608ZM 65.4626 63.68C 65.4626 63.3493 65.3933 63.04 65.2546 62.752C 65.1266 62.464 64.9453 62.2133 64.7106 62C 64.4866 61.776 64.2146 61.6 63.8946 61.472C 63.5853 61.344 63.2546 61.28 62.9026 61.28C 62.38 61.28 61.9426 61.3867 61.5906 61.6C 61.2493 61.8133 60.9773 62.0587 60.7746 62.336C 60.572 62.6133 60.428 62.8853 60.3426 63.152C 60.2573 63.408 60.2146 63.584 60.2146 63.68L 65.4626 63.68ZM 68.7213 55.904L 69.6813 55.904L 69.6813 68L 68.7213 68L 68.7213 55.904ZM 71.989 64.304C 71.989 63.7387 72.085 63.2213 72.277 62.752C 72.469 62.272 72.7357 61.8613 73.077 61.52C 73.4183 61.168 73.829 60.896 74.309 60.704C 74.789 60.512 75.3117 60.416 75.877 60.416C 76.4423 60.416 76.9597 60.512 77.429 60.704C 77.909 60.896 78.3197 61.168 78.661 61.52C 79.013 61.8613 79.285 62.272 79.477 62.752C 79.669 63.2213 79.765 63.7387 79.765 64.304C 79.765 64.8693 79.669 65.392 79.477 65.872C 79.285 66.3413 79.013 66.752 78.661 67.104C 78.3197 67.4453 77.909 67.712 77.429 67.904C 76.9597 68.096 76.4423 68.192 75.877 68.192C 75.3117 68.192 74.789 68.096 74.309 67.904C 73.829 67.712 73.4183 67.4453 73.077 67.104C 72.7357 66.752 72.469 66.3413 72.277 65.872C 72.085 65.392 71.989 64.8693 71.989 64.304ZM 72.949 64.304C 72.949 64.72 73.013 65.1147 73.141 65.488C 73.2797 65.8507 73.477 66.1707 73.733 66.448C 73.989 66.7147 74.2983 66.928 74.661 67.088C 75.0237 67.248 75.429 67.328 75.877 67.328C 76.325 67.328 76.7303 67.248 77.093 67.088C 77.4557 66.928 77.765 66.7147 78.021 66.448C 78.277 66.1707 78.469 65.8507 78.597 65.488C 78.7357 65.1147 78.805 64.72 78.805 64.304C 78.805 63.888 78.7357 63.4987 78.597 63.136C 78.469 62.7627 78.277 62.4427 78.021 62.176C 77.765 61.8987 77.4557 61.68 77.093 61.52C 76.7303 61.36 76.325 61.28 75.877 61.28C 75.429 61.28 75.0237 61.36 74.661 61.52C 74.2983 61.68 73.989 61.8987 73.733 62.176C 73.477 62.4427 73.2797 62.7627 73.141 63.136C 73.013 63.4987 72.949 63.888 72.949 64.304ZM 81.697 60.608L 82.657 60.608L 82.657 61.904L 82.689 61.904C 82.8383 61.648 83.025 61.4293 83.249 61.248C 83.473 61.056 83.713 60.9013 83.969 60.784C 84.2357 60.656 84.513 60.5653 84.801 60.512C 85.089 60.448 85.3717 60.416 85.649 60.416C 86.2143 60.416 86.7317 60.512 87.201 60.704C 87.681 60.896 88.0917 61.168 88.433 61.52C 88.785 61.8613 89.057 62.272 89.249 62.752C 89.441 63.2213 89.537 63.7387 89.537 64.304C 89.537 64.8693 89.441 65.392 89.249 65.872C 89.057 66.3413 88.785 66.752 88.433 67.104C 88.0917 67.4453 87.681 67.712 87.201 67.904C 86.7317 68.096 86.2143 68.192 85.649 68.192C 85.3717 68.192 85.089 68.16 84.801 68.096C 84.513 68.0427 84.2357 67.9573 83.969 67.84C 83.713 67.712 83.473 67.5573 83.249 67.376C 83.025 67.184 82.8383 66.96 82.689 66.704L 82.657 66.704L 82.657 71.648L 81.697 71.648L 81.697 60.608ZM 82.561 64.304C 82.561 64.72 82.641 65.1147 82.801 65.488C 82.961 65.8507 83.1797 66.1707 83.457 66.448C 83.7343 66.7147 84.0597 66.928 84.433 67.088C 84.8063 67.248 85.2117 67.328 85.649 67.328C 86.097 67.328 86.5023 67.248 86.865 67.088C 87.2277 66.928 87.537 66.7147 87.793 66.448C 88.049 66.1707 88.241 65.8507 88.369 65.488C 88.5077 65.1147 88.577 64.72 88.577 64.304C 88.577 63.888 88.5077 63.4987 88.369 63.136C 88.241 62.7627 88.049 62.4427 87.793 62.176C 87.537 61.8987 87.2277 61.68 86.865 61.52C 86.5023 61.36 86.097 61.28 85.649 61.28C 85.2117 61.28 84.8063 61.36 84.433 61.52C 84.0597 61.68 83.7343 61.8987 83.457 62.176C 83.1797 62.4427 82.961 62.7627 82.801 63.136C 82.641 63.4987 82.561 63.888 82.561 64.304ZM 98.2143 66.608C 97.8409 67.1733 97.3769 67.5787 96.8222 67.824C 96.2783 68.0693 95.6756 68.192 95.0142 68.192C 94.4489 68.192 93.9369 68.096 93.4783 67.904C 93.0196 67.712 92.6249 67.4453 92.2943 67.104C 91.9636 66.752 91.7076 66.3413 91.5263 65.872C 91.3556 65.392 91.2703 64.864 91.2703 64.288C 91.2703 63.7333 91.3609 63.2213 91.5423 62.752C 91.7236 62.2827 91.9796 61.8773 92.3103 61.536C 92.6409 61.184 93.0303 60.912 93.4783 60.72C 93.9262 60.5173 94.4222 60.416 94.9662 60.416C 95.5316 60.416 96.0276 60.5173 96.4542 60.72C 96.8916 60.912 97.2543 61.1733 97.5423 61.504C 97.8409 61.824 98.0649 62.192 98.2143 62.608C 98.3636 63.024 98.4382 63.4453 98.4382 63.872L 98.4382 64.544L 92.2303 64.544C 92.2303 64.7467 92.2676 65.008 92.3422 65.328C 92.4276 65.6373 92.5769 65.9413 92.7903 66.24C 93.0036 66.5387 93.2863 66.7947 93.6383 67.008C 94.0009 67.2213 94.4649 67.328 95.0303 67.328C 95.5209 67.328 95.9956 67.2107 96.4542 66.976C 96.9129 66.7413 97.2649 66.4213 97.5103 66.016L 98.2143 66.608ZM 97.4783 63.68C 97.4783 63.3493 97.4089 63.04 97.2702 62.752C 97.1423 62.464 96.9609 62.2133 96.7263 62C 96.5023 61.776 96.2302 61.6 95.9103 61.472C 95.6009 61.344 95.2702 61.28 94.9183 61.28C 94.3956 61.28 93.9583 61.3867 93.6063 61.6C 93.2649 61.8133 92.9929 62.0587 92.7903 62.336C 92.5876 62.6133 92.4436 62.8853 92.3583 63.152C 92.2729 63.408 92.2303 63.584 92.2303 63.68L 97.4783 63.68ZM 100.577 62.688C 100.577 62.5493 100.572 62.384 100.561 62.192C 100.55 61.9893 100.54 61.7867 100.529 61.584C 100.529 61.3813 100.524 61.1947 100.513 61.024C 100.502 60.8427 100.497 60.704 100.497 60.608L 101.457 60.608C 101.468 60.8853 101.473 61.152 101.473 61.408C 101.484 61.664 101.5 61.8293 101.521 61.904C 101.766 61.4667 102.081 61.1093 102.465 60.832C 102.849 60.5547 103.318 60.416 103.873 60.416C 103.969 60.416 104.06 60.4267 104.145 60.448C 104.241 60.4587 104.337 60.4747 104.433 60.496L 104.321 61.44C 104.193 61.3973 104.07 61.376 103.953 61.376C 103.537 61.376 103.174 61.4453 102.865 61.584C 102.566 61.712 102.316 61.8933 102.113 62.128C 101.921 62.3627 101.777 62.64 101.681 62.96C 101.585 63.2693 101.537 63.6053 101.537 63.968L 101.537 68L 100.577 68L 100.577 62.688ZM 1.072 82.904L 2.032 82.904L 2.032 88.904L 2.064 88.904C 2.21333 88.648 2.4 88.4293 2.624 88.248C 2.848 88.056 3.088 87.9013 3.344 87.784C 3.61067 87.656 3.888 87.5653 4.176 87.512C 4.464 87.448 4.74667 87.416 5.024 87.416C 5.58933 87.416 6.10667 87.512 6.576 87.704C 7.056 87.896 7.46667 88.168 7.808 88.52C 8.16 88.8613 8.432 89.272 8.624 89.752C 8.816 90.2213 8.912 90.7387 8.912 91.304C 8.912 91.8693 8.816 92.392 8.624 92.872C 8.432 93.3413 8.16 93.752 7.808 94.104C 7.46667 94.4453 7.056 94.712 6.576 94.904C 6.10667 95.096 5.58933 95.192 5.024 95.192C 4.74667 95.192 4.464 95.16 4.176 95.096C 3.888 95.0427 3.61067 94.9573 3.344 94.84C 3.088 94.712 2.848 94.5573 2.624 94.376C 2.4 94.184 2.21333 93.96 2.064 93.704L 2.032 93.704L 2.032 95L 1.072 95L 1.072 82.904ZM 1.936 91.304C 1.936 91.72 2.016 92.1147 2.176 92.488C 2.336 92.8507 2.55467 93.1707 2.832 93.448C 3.10933 93.7147 3.43467 93.928 3.808 94.088C 4.18133 94.248 4.58667 94.328 5.024 94.328C 5.472 94.328 5.87733 94.248 6.24 94.088C 6.60267 93.928 6.912 93.7147 7.168 93.448C 7.424 93.1707 7.616 92.8507 7.744 92.488C 7.88267 92.1147 7.952 91.72 7.952 91.304C 7.952 90.888 7.88267 90.4987 7.744 90.136C 7.616 89.7627 7.424 89.4427 7.168 89.176C 6.912 88.8987 6.60267 88.68 6.24 88.52C 5.87733 88.36 5.472 88.28 5.024 88.28C 4.58667 88.28 4.18133 88.36 3.808 88.52C 3.43467 88.68 3.10933 88.8987 2.832 89.176C 2.55467 89.4427 2.336 89.7627 2.176 90.136C 2.016 90.4987 1.936 90.888 1.936 91.304ZM 16.8053 91.896C 16.8053 92.2587 16.8053 92.584 16.8053 92.872C 16.8159 93.16 16.8266 93.4267 16.8373 93.672C 16.8479 93.9173 16.8586 94.1467 16.8692 94.36C 16.8906 94.5733 16.9173 94.7867 16.9493 95L 16.0532 95C 15.9893 94.6373 15.9573 94.2373 15.9573 93.8L 15.9253 93.8C 15.6479 94.28 15.3012 94.632 14.8853 94.856C 14.4799 95.08 13.9626 95.192 13.3333 95.192C 13.0133 95.192 12.6986 95.1493 12.3893 95.064C 12.0799 94.9893 11.8026 94.8667 11.5573 94.696C 11.3119 94.5147 11.1092 94.2853 10.9492 94.008C 10.7999 93.7307 10.7253 93.3947 10.7253 93C 10.7253 92.4347 10.8693 91.9867 11.1573 91.656C 11.4453 91.3253 11.7973 91.08 12.2132 90.92C 12.6399 90.7493 13.0879 90.6427 13.5573 90.6C 14.0373 90.5467 14.4586 90.52 14.8212 90.52L 15.9412 90.52L 15.9412 90.072C 15.9412 89.432 15.7439 88.9733 15.3492 88.696C 14.9546 88.4187 14.4586 88.28 13.8612 88.28C 13.0079 88.28 12.2559 88.5573 11.6053 89.112L 11.0453 88.456C 11.3973 88.1147 11.8346 87.8587 12.3572 87.688C 12.8799 87.5067 13.3812 87.416 13.8612 87.416C 14.7572 87.416 15.4719 87.6293 16.0052 88.056C 16.5386 88.472 16.8053 89.1493 16.8053 90.088L 16.8053 91.896ZM 14.8853 91.288C 14.4799 91.288 14.0852 91.3147 13.7013 91.368C 13.3279 91.4213 12.9866 91.512 12.6772 91.64C 12.3786 91.768 12.1386 91.9387 11.9573 92.152C 11.7759 92.3653 11.6853 92.632 11.6853 92.952C 11.6853 93.176 11.7333 93.3787 11.8293 93.56C 11.9359 93.7307 12.0693 93.8747 12.2292 93.992C 12.3893 94.0987 12.5652 94.184 12.7573 94.248C 12.9599 94.3013 13.1626 94.328 13.3653 94.328C 13.8773 94.328 14.2986 94.2533 14.6293 94.104C 14.9599 93.9547 15.2213 93.7627 15.4132 93.528C 15.6159 93.2827 15.7546 93.0107 15.8292 92.712C 15.9039 92.4027 15.9412 92.0933 15.9412 91.784L 15.9412 91.288L 14.8853 91.288ZM 19.3741 93.112C 19.5768 93.5067 19.8755 93.8107 20.2701 94.024C 20.6648 94.2267 21.0808 94.328 21.5181 94.328C 21.7208 94.328 21.9235 94.296 22.1261 94.232C 22.3288 94.168 22.5101 94.0773 22.6701 93.96C 22.8301 93.8427 22.9581 93.704 23.0541 93.544C 23.1608 93.3733 23.2141 93.1813 23.2141 92.968C 23.2141 92.6267 23.1021 92.3707 22.8781 92.2C 22.6648 92.0293 22.3981 91.896 22.0781 91.8C 21.7581 91.704 21.4061 91.624 21.0221 91.56C 20.6381 91.4853 20.2861 91.3787 19.9661 91.24C 19.6461 91.0907 19.3741 90.888 19.1501 90.632C 18.9368 90.376 18.8301 90.0133 18.8301 89.544C 18.8301 89.1813 18.9048 88.8667 19.0541 88.6C 19.2035 88.3333 19.3955 88.1147 19.6301 87.944C 19.8755 87.7627 20.1475 87.6293 20.4461 87.544C 20.7448 87.4587 21.0488 87.416 21.3581 87.416C 21.9661 87.416 22.4888 87.528 22.9261 87.752C 23.3741 87.976 23.7208 88.328 23.9661 88.808L 23.1021 89.32C 22.9208 88.9787 22.6915 88.7227 22.4141 88.552C 22.1475 88.3707 21.7955 88.28 21.3581 88.28C 21.1875 88.28 21.0061 88.3067 20.8141 88.36C 20.6328 88.4133 20.4675 88.488 20.3181 88.584C 20.1688 88.68 20.0408 88.8027 19.9341 88.952C 19.8381 89.1013 19.7901 89.272 19.7901 89.464C 19.7901 89.7947 19.8968 90.04 20.1101 90.2C 20.3341 90.36 20.6061 90.488 20.9261 90.584C 21.2461 90.6693 21.5981 90.744 21.9821 90.808C 22.3661 90.872 22.7181 90.9787 23.0381 91.128C 23.3581 91.2667 23.6248 91.4747 23.8381 91.752C 24.0621 92.0187 24.1741 92.4027 24.1741 92.904C 24.1741 93.288 24.0995 93.624 23.9501 93.912C 23.8115 94.1893 23.6141 94.424 23.3581 94.616C 23.1128 94.808 22.8301 94.952 22.5101 95.048C 22.1901 95.144 21.8541 95.192 21.5021 95.192C 20.8621 95.192 20.2755 95.0693 19.7421 94.824C 19.2195 94.5787 18.8141 94.2 18.5261 93.688L 19.3741 93.112ZM 32.6986 93.608C 32.3253 94.1733 31.8613 94.5787 31.3066 94.824C 30.7626 95.0693 30.16 95.192 29.4986 95.192C 28.9333 95.192 28.4213 95.096 27.9626 94.904C 27.504 94.712 27.1093 94.4453 26.7786 94.104C 26.448 93.752 26.192 93.3413 26.0106 92.872C 25.84 92.392 25.7546 91.864 25.7546 91.288C 25.7546 90.7333 25.8453 90.2213 26.0266 89.752C 26.208 89.2827 26.464 88.8773 26.7946 88.536C 27.1253 88.184 27.5146 87.912 27.9626 87.72C 28.4106 87.5173 28.9066 87.416 29.4506 87.416C 30.016 87.416 30.512 87.5173 30.9386 87.72C 31.376 87.912 31.7386 88.1733 32.0266 88.504C 32.3253 88.824 32.5493 89.192 32.6986 89.608C 32.848 90.024 32.9226 90.4453 32.9226 90.872L 32.9226 91.544L 26.7146 91.544C 26.7146 91.7467 26.752 92.008 26.8266 92.328C 26.912 92.6373 27.0613 92.9413 27.2746 93.24C 27.488 93.5387 27.7706 93.7947 28.1226 94.008C 28.4853 94.2213 28.9493 94.328 29.5146 94.328C 30.0053 94.328 30.48 94.2107 30.9386 93.976C 31.3973 93.7413 31.7493 93.4213 31.9946 93.016L 32.6986 93.608ZM 31.9626 90.68C 31.9626 90.3493 31.8933 90.04 31.7546 89.752C 31.6266 89.464 31.4453 89.2133 31.2106 89C 30.9866 88.776 30.7146 88.6 30.3946 88.472C 30.0853 88.344 29.7546 88.28 29.4026 88.28C 28.88 88.28 28.4426 88.3867 28.0906 88.6C 27.7493 88.8133 27.4773 89.0587 27.2746 89.336C 27.072 89.6133 26.928 89.8853 26.8426 90.152C 26.7573 90.408 26.7146 90.584 26.7146 90.68L 31.9626 90.68ZM 41.5252 93.704L 41.4932 93.704C 41.3439 93.96 41.1572 94.184 40.9332 94.376C 40.7092 94.5573 40.4639 94.712 40.1972 94.84C 39.9412 94.9573 39.6693 95.0427 39.3812 95.096C 39.0932 95.16 38.8106 95.192 38.5332 95.192C 37.9679 95.192 37.4453 95.096 36.9653 94.904C 36.4852 94.712 36.0746 94.4453 35.7333 94.104C 35.3919 93.752 35.1252 93.3413 34.9332 92.872C 34.7412 92.392 34.6453 91.8693 34.6453 91.304C 34.6453 90.7387 34.7412 90.2213 34.9332 89.752C 35.1252 89.272 35.3919 88.8613 35.7333 88.52C 36.0746 88.168 36.4852 87.896 36.9653 87.704C 37.4453 87.512 37.9679 87.416 38.5332 87.416C 38.8106 87.416 39.0932 87.448 39.3812 87.512C 39.6693 87.5653 39.9412 87.656 40.1972 87.784C 40.4639 87.9013 40.7092 88.056 40.9332 88.248C 41.1572 88.4293 41.3439 88.648 41.4932 88.904L 41.5252 88.904L 41.5252 82.904L 42.4853 82.904L 42.4853 95L 41.5252 95L 41.5252 93.704ZM 41.6213 91.304C 41.6213 90.888 41.5413 90.4987 41.3812 90.136C 41.2213 89.7627 41.0026 89.4427 40.7252 89.176C 40.4479 88.8987 40.1226 88.68 39.7492 88.52C 39.3759 88.36 38.9706 88.28 38.5332 88.28C 38.0852 88.28 37.6799 88.36 37.3173 88.52C 36.9546 88.68 36.6453 88.8987 36.3893 89.176C 36.1332 89.4427 35.9359 89.7627 35.7973 90.136C 35.6693 90.4987 35.6053 90.888 35.6053 91.304C 35.6053 91.72 35.6693 92.1147 35.7973 92.488C 35.9359 92.8507 36.1332 93.1707 36.3893 93.448C 36.6453 93.7147 36.9546 93.928 37.3173 94.088C 37.6799 94.248 38.0852 94.328 38.5332 94.328C 38.9706 94.328 39.3759 94.248 39.7492 94.088C 40.1226 93.928 40.4479 93.7147 40.7252 93.448C 41.0026 93.1707 41.2213 92.8507 41.3812 92.488C 41.5413 92.1147 41.6213 91.72 41.6213 91.304ZM 49.1588 87.608L 50.1188 87.608L 50.1188 95L 49.1588 95L 49.1588 87.608ZM 48.9188 84.68C 48.9188 84.4773 48.9881 84.3067 49.1267 84.168C 49.2654 84.0293 49.4361 83.96 49.6387 83.96C 49.8414 83.96 50.0121 84.0293 50.1507 84.168C 50.2894 84.3067 50.3588 84.4773 50.3588 84.68C 50.3588 84.8827 50.2894 85.0533 50.1507 85.192C 50.0121 85.3307 49.8414 85.4 49.6387 85.4C 49.4361 85.4 49.2654 85.3307 49.1267 85.192C 48.9881 85.0533 48.9188 84.8827 48.9188 84.68ZM 52.8425 89.688C 52.8425 89.5493 52.8372 89.384 52.8265 89.192C 52.8158 88.9893 52.8052 88.7867 52.7945 88.584C 52.7945 88.3813 52.7892 88.1947 52.7785 88.024C 52.7678 87.8427 52.7625 87.704 52.7625 87.608L 53.7225 87.608C 53.7332 87.8853 53.7385 88.152 53.7385 88.408C 53.7492 88.664 53.7652 88.8293 53.7865 88.904L 53.8345 88.904C 54.0265 88.4987 54.3465 88.152 54.7945 87.864C 55.2425 87.5653 55.7652 87.416 56.3625 87.416C 56.9385 87.416 57.4078 87.5067 57.7705 87.688C 58.1332 87.8693 58.4158 88.1093 58.6185 88.408C 58.8318 88.696 58.9758 89.032 59.0505 89.416C 59.1358 89.8 59.1785 90.1947 59.1785 90.6L 59.1785 95L 58.2185 95L 58.2185 90.648C 58.2185 90.3493 58.1918 90.0613 58.1385 89.784C 58.0852 89.496 57.9892 89.24 57.8505 89.016C 57.7225 88.792 57.5358 88.616 57.2905 88.488C 57.0558 88.3493 56.7465 88.28 56.3625 88.28C 56.0105 88.28 55.6745 88.344 55.3545 88.472C 55.0452 88.5893 54.7732 88.776 54.5385 89.032C 54.3145 89.2773 54.1332 89.592 53.9945 89.976C 53.8665 90.3493 53.8025 90.792 53.8025 91.304L 53.8025 95L 52.8425 95L 52.8425 89.688ZM 1.552 109.672L 4.816 109.672C 5.24267 109.672 5.67467 109.709 6.112 109.784C 6.54933 109.848 6.93867 109.992 7.28 110.216C 7.632 110.429 7.91467 110.733 8.128 111.128C 8.352 111.512 8.464 112.024 8.464 112.664C 8.464 113.24 8.29333 113.741 7.952 114.168C 7.61067 114.595 7.104 114.877 6.432 115.016L 6.432 115.048C 6.80533 115.08 7.14667 115.171 7.456 115.32C 7.76533 115.459 8.032 115.651 8.256 115.896C 8.48 116.131 8.65067 116.413 8.768 116.744C 8.896 117.075 8.96 117.437 8.96 117.832C 8.96 118.483 8.832 119.016 8.576 119.432C 8.33067 119.837 8.016 120.157 7.632 120.392C 7.25867 120.627 6.848 120.787 6.4 120.872C 5.96267 120.957 5.552 121 5.168 121L 1.552 121L 1.552 109.672ZM 2.608 114.568L 4.8 114.568C 5.344 114.568 5.78667 114.504 6.128 114.376C 6.46933 114.237 6.736 114.072 6.928 113.88C 7.12 113.688 7.248 113.485 7.312 113.272C 7.376 113.048 7.408 112.845 7.408 112.664C 7.408 112.269 7.33867 111.944 7.2 111.688C 7.072 111.421 6.896 111.213 6.672 111.064C 6.448 110.904 6.18667 110.792 5.888 110.728C 5.58933 110.664 5.27467 110.632 4.944 110.632L 2.608 110.632L 2.608 114.568ZM 2.608 120.04L 5.024 120.04C 5.64267 120.04 6.13867 119.965 6.512 119.816C 6.896 119.667 7.18933 119.48 7.392 119.256C 7.59467 119.032 7.728 118.797 7.792 118.552C 7.86667 118.296 7.904 118.067 7.904 117.864C 7.904 117.448 7.824 117.091 7.664 116.792C 7.504 116.493 7.296 116.253 7.04 116.072C 6.784 115.88 6.49067 115.741 6.16 115.656C 5.84 115.571 5.51467 115.528 5.184 115.528L 2.608 115.528L 2.608 120.04ZM 11.3581 115.688C 11.3581 115.549 11.3528 115.384 11.3421 115.192C 11.3315 114.989 11.3208 114.787 11.3101 114.584C 11.3101 114.381 11.3048 114.195 11.2941 114.024C 11.2835 113.843 11.2781 113.704 11.2781 113.608L 12.2381 113.608C 12.2488 113.885 12.2541 114.152 12.2541 114.408C 12.2648 114.664 12.2808 114.829 12.3021 114.904C 12.5475 114.467 12.8621 114.109 13.2461 113.832C 13.6301 113.555 14.0995 113.416 14.6541 113.416C 14.7501 113.416 14.8408 113.427 14.9261 113.448C 15.0221 113.459 15.1181 113.475 15.2141 113.496L 15.1021 114.44C 14.9741 114.397 14.8515 114.376 14.7341 114.376C 14.3181 114.376 13.9555 114.445 13.6461 114.584C 13.3475 114.712 13.0968 114.893 12.8941 115.128C 12.7021 115.363 12.5581 115.64 12.4621 115.96C 12.3661 116.269 12.3181 116.605 12.3181 116.968L 12.3181 121L 11.3581 121L 11.3581 115.688ZM 15.989 117.304C 15.989 116.739 16.085 116.221 16.277 115.752C 16.469 115.272 16.7357 114.861 17.077 114.52C 17.4183 114.168 17.829 113.896 18.309 113.704C 18.789 113.512 19.3117 113.416 19.877 113.416C 20.4423 113.416 20.9597 113.512 21.429 113.704C 21.909 113.896 22.3197 114.168 22.661 114.52C 23.013 114.861 23.285 115.272 23.477 115.752C 23.669 116.221 23.765 116.739 23.765 117.304C 23.765 117.869 23.669 118.392 23.477 118.872C 23.285 119.341 23.013 119.752 22.661 120.104C 22.3197 120.445 21.909 120.712 21.429 120.904C 20.9597 121.096 20.4423 121.192 19.877 121.192C 19.3117 121.192 18.789 121.096 18.309 120.904C 17.829 120.712 17.4183 120.445 17.077 120.104C 16.7357 119.752 16.469 119.341 16.277 118.872C 16.085 118.392 15.989 117.869 15.989 117.304ZM 16.949 117.304C 16.949 117.72 17.013 118.115 17.141 118.488C 17.2797 118.851 17.477 119.171 17.733 119.448C 17.989 119.715 18.2983 119.928 18.661 120.088C 19.0237 120.248 19.429 120.328 19.877 120.328C 20.325 120.328 20.7303 120.248 21.093 120.088C 21.4557 119.928 21.765 119.715 22.021 119.448C 22.277 119.171 22.469 118.851 22.597 118.488C 22.7357 118.115 22.805 117.72 22.805 117.304C 22.805 116.888 22.7357 116.499 22.597 116.136C 22.469 115.763 22.277 115.443 22.021 115.176C 21.765 114.899 21.4557 114.68 21.093 114.52C 20.7303 114.36 20.325 114.28 19.877 114.28C 19.429 114.28 19.0237 114.36 18.661 114.52C 18.2983 114.68 17.989 114.899 17.733 115.176C 17.477 115.443 17.2797 115.763 17.141 116.136C 17.013 116.499 16.949 116.888 16.949 117.304ZM 25.489 117.304C 25.489 116.739 25.585 116.221 25.777 115.752C 25.969 115.272 26.2357 114.861 26.577 114.52C 26.9183 114.168 27.329 113.896 27.809 113.704C 28.289 113.512 28.8117 113.416 29.377 113.416C 29.9423 113.416 30.4597 113.512 30.929 113.704C 31.409 113.896 31.8197 114.168 32.161 114.52C 32.513 114.861 32.785 115.272 32.977 115.752C 33.169 116.221 33.265 116.739 33.265 117.304C 33.265 117.869 33.169 118.392 32.977 118.872C 32.785 119.341 32.513 119.752 32.161 120.104C 31.8197 120.445 31.409 120.712 30.929 120.904C 30.4597 121.096 29.9423 121.192 29.377 121.192C 28.8117 121.192 28.289 121.096 27.809 120.904C 27.329 120.712 26.9183 120.445 26.577 120.104C 26.2357 119.752 25.969 119.341 25.777 118.872C 25.585 118.392 25.489 117.869 25.489 117.304ZM 26.449 117.304C 26.449 117.72 26.513 118.115 26.641 118.488C 26.7797 118.851 26.977 119.171 27.233 119.448C 27.489 119.715 27.7983 119.928 28.161 120.088C 28.5237 120.248 28.929 120.328 29.377 120.328C 29.825 120.328 30.2303 120.248 30.593 120.088C 30.9557 119.928 31.265 119.715 31.521 119.448C 31.777 119.171 31.969 118.851 32.097 118.488C 32.2357 118.115 32.305 117.72 32.305 117.304C 32.305 116.888 32.2357 116.499 32.097 116.136C 31.969 115.763 31.777 115.443 31.521 115.176C 31.265 114.899 30.9557 114.68 30.593 114.52C 30.2303 114.36 29.825 114.28 29.377 114.28C 28.929 114.28 28.5237 114.36 28.161 114.52C 27.7983 114.68 27.489 114.899 27.233 115.176C 26.977 115.443 26.7797 115.763 26.641 116.136C 26.513 116.499 26.449 116.888 26.449 117.304ZM 35.405 108.904L 36.365 108.904L 36.365 116.968L 40.013 113.624L 41.421 113.624L 37.613 117L 41.869 121L 40.413 121L 36.365 117.096L 36.365 121L 35.405 121L 35.405 108.904ZM 43.2681 108.904L 44.2281 108.904L 44.2281 121L 43.2681 121L 43.2681 108.904ZM 49.0319 123.288C 48.8505 123.768 48.5999 124.147 48.2799 124.424C 47.9599 124.701 47.5332 124.84 46.9999 124.84C 46.8399 124.84 46.6799 124.824 46.5199 124.792C 46.3599 124.771 46.2052 124.739 46.0559 124.696L 46.1519 123.8C 46.2905 123.843 46.4292 123.88 46.5679 123.912C 46.7172 123.955 46.8665 123.976 47.0159 123.976C 47.1865 123.976 47.3359 123.939 47.4639 123.864C 47.6025 123.789 47.7199 123.693 47.8159 123.576C 47.9119 123.459 47.9919 123.325 48.0559 123.176C 48.1305 123.037 48.1945 122.893 48.2479 122.744L 48.9199 121.032L 45.9119 113.608L 46.9839 113.608L 49.4319 119.832L 51.8159 113.608L 52.8399 113.608L 49.0319 123.288ZM 54.3581 115.688C 54.3581 115.549 54.3528 115.384 54.3421 115.192C 54.3315 114.989 54.3208 114.787 54.3101 114.584C 54.3101 114.381 54.3048 114.195 54.2941 114.024C 54.2835 113.843 54.2781 113.704 54.2781 113.608L 55.2381 113.608C 55.2488 113.885 55.2541 114.152 55.2541 114.408C 55.2648 114.664 55.2808 114.829 55.3021 114.904L 55.3501 114.904C 55.5421 114.499 55.8621 114.152 56.3101 113.864C 56.7581 113.565 57.2808 113.416 57.8781 113.416C 58.4541 113.416 58.9235 113.507 59.2861 113.688C 59.6488 113.869 59.9315 114.109 60.1341 114.408C 60.3475 114.696 60.4915 115.032 60.5661 115.416C 60.6515 115.8 60.6941 116.195 60.6941 116.6L 60.6941 121L 59.7341 121L 59.7341 116.648C 59.7341 116.349 59.7075 116.061 59.6541 115.784C 59.6008 115.496 59.5048 115.24 59.3661 115.016C 59.2381 114.792 59.0515 114.616 58.8061 114.488C 58.5715 114.349 58.2621 114.28 57.8781 114.28C 57.5261 114.28 57.1901 114.344 56.8701 114.472C 56.5608 114.589 56.2888 114.776 56.0541 115.032C 55.8301 115.277 55.6488 115.592 55.5101 115.976C 55.3821 116.349 55.3181 116.792 55.3181 117.304L 55.3181 121L 54.3581 121L 54.3581 115.688ZM 63.8247 119.56L 64.9448 119.56L 63.7127 123.208L 62.7688 123.208L 63.8247 119.56ZM 71.8333 109.672L 73.1932 109.672L 80.0892 119.592L 80.1213 119.592L 80.1213 109.672L 81.1772 109.672L 81.1772 121L 79.8173 121L 72.9213 111.08L 72.8893 111.08L 72.8893 121L 71.8333 121L 71.8333 109.672ZM 86.7984 116.12L 82.6384 109.672L 83.9024 109.672L 87.3264 115.048L 90.8304 109.672L 92.0144 109.672L 87.8544 116.12L 87.8544 121L 86.7984 121L 86.7984 116.12ZM 91.6558 120.328C 91.6558 120.115 91.7304 119.933 91.8798 119.784C 92.0291 119.635 92.2104 119.56 92.4237 119.56C 92.6371 119.56 92.8184 119.635 92.9678 119.784C 93.1171 119.933 93.1918 120.115 93.1918 120.328C 93.1918 120.541 93.1171 120.723 92.9678 120.872C 92.8184 121.021 92.6371 121.096 92.4237 121.096C 92.2104 121.096 92.0291 121.021 91.8798 120.872C 91.7304 120.723 91.6558 120.541 91.6558 120.328Z"/>
<path id="path7_fill" d="M 5.024 4.672L 6.112 4.672L 10.88 16L 9.696 16L 8.464 12.992L 2.464 12.992L 1.184 16L 0.08 16L 5.024 4.672ZM 5.52 5.824L 2.88 12.032L 8.08 12.032L 5.52 5.824Z"/>
</defs>
</svg>
