<svg width="16" height="37" viewBox="0 0 16 37" version="1.1" xmlns="http://www.w3.org/2000/svg" xmlns:xlink="http://www.w3.org/1999/xlink">
<title>Vector 31</title>
<desc>Created using Figma</desc>
<g id="Canvas" transform="translate(180 206)">
<g id="Vector 31">
<use xlink:href="#path0_stroke" transform="translate(-179 -205)" fill="#28536B"/>
</g>
</g>
<defs>
<path id="path0_stroke" d="M -0.498731 31.9565C -0.518389 32.2319 -0.311035 32.4712 -0.0355937 32.4908C 0.239848 32.5105 0.479074 32.3031 0.498731 32.0277L -0.498731 31.9565ZM 7.82427 0.0990782L 7.82427 0.599139L 7.83208 0.599017L 7.82427 0.0990782ZM 7.82427 26.8434L 7.76363 27.3398L 7.76363 27.3398L 7.82427 26.8434ZM 13.7992 0.0990782L 13.8876 0.591197C 14.0765 0.557256 14.2293 0.418195 14.2808 0.233327C 14.3323 0.04846 14.2735 -0.149588 14.1294 -0.276344L 13.7992 0.0990782ZM 13.9017 35.6279C 14.1719 35.5713 14.3452 35.3063 14.2885 35.036C 14.2319 34.7657 13.9669 34.5925 13.6967 34.6491L 13.9017 35.6279ZM 7.82427 0.0990782L 7.82426 -0.400983L 7.81646 -0.400861L 7.82427 0.0990782ZM 7.82427 26.8434L 7.88491 26.3471L 7.88491 26.3471L 7.82427 26.8434ZM 13.7992 0.0990782L 13.7107 -0.39304C 13.5218 -0.359099 13.3691 -0.220038 13.3175 -0.035171C 13.266 0.149696 13.3248 0.347744 13.4689 0.4745L 13.7992 0.0990782ZM 0 31.9921C 0.498731 32.0277 0.498737 32.0276 0.498751 32.0274C 0.498768 32.0272 0.498791 32.0269 0.498824 32.0264C 0.498891 32.0255 0.498989 32.0241 0.499124 32.0222C 0.499399 32.0184 0.499804 32.0128 0.500353 32.0053C 0.50146 31.99 0.503109 31.9675 0.505329 31.9376C 0.509787 31.8775 0.51646 31.7887 0.525435 31.6724C 0.54342 31.4393 0.570448 31.0984 0.606893 30.6634C 0.679864 29.7926 0.790078 28.5509 0.939839 27.0587C 1.23955 24.0723 1.69572 20.0999 2.32544 16.1238C 2.95496 12.1476 3.75072 8.2009 4.7356 5.24007C 5.22474 3.76647 5.73964 2.58328 6.30857 1.75072C 6.87663 0.915618 7.38852 0.599083 7.82427 0.599078L 7.82426 -0.400922C 6.87299 -0.40091 6.1001 0.279224 5.48173 1.18828C 4.86424 2.09988 4.29108 3.40833 3.78663 4.92471C 2.78433 7.94382 1.97078 11.9704 1.33774 15.9674C 0.704911 19.9646 0.245286 23.9654 -0.0551628 26.9589C -0.205481 28.4567 -0.316435 29.7066 -0.389614 30.5799C -0.426244 31.0171 -0.453535 31.3613 -0.471601 31.5954C -0.480652 31.7127 -0.487437 31.803 -0.491931 31.8636C -0.494187 31.894 -0.495888 31.9172 -0.497011 31.9327C -0.497577 31.9405 -0.498007 31.9464 -0.49829 31.9503C -0.498433 31.9523 -0.498544 31.9539 -0.498615 31.9549C -0.498652 31.9554 -0.498681 31.9558 -0.498699 31.956C -0.49872 31.9563 -0.498731 31.9565 0 31.9921ZM 7.82427 0.599078C 7.71314 0.59908 7.64017 0.542867 7.61511 0.515986C 7.60699 0.512669 7.61509 0.509375 7.63711 0.57205C 7.69627 0.724401 7.73576 0.945331 7.76898 1.28653C 7.83874 1.98742 7.84161 2.98998 7.80072 4.22421C 7.719 6.69954 7.45922 10.0073 7.20845 13.3346C 6.95768 16.6619 6.71588 20.0112 6.67232 22.5446C 6.65068 23.8154 6.68016 24.9091 6.78386 25.6851C 6.8379 26.0827 6.92333 26.4468 7.02912 26.6974C 7.13405 26.9409 7.34744 27.2889 7.76363 27.3398L 7.88491 26.3471C 8.03085 26.365 8.02222 26.4751 7.94748 26.3017C 7.87361 26.1354 7.82172 25.9035 7.77493 25.5518C 7.67696 24.8291 7.65067 23.8107 7.67217 22.5618C 7.71489 20.0558 7.95497 16.7355 8.20562 13.4098C 8.45627 10.084 8.71745 6.75521 8.80017 4.25725C 8.8415 3.00483 8.83745 1.93657 8.76415 1.18829C 8.72585 0.804906 8.65977 0.456668 8.57346 0.220999C 8.52568 0.0935421 8.45596 -0.0485599 8.34658 -0.165893C 8.22809 -0.292995 8.05099 -0.400925 7.82426 -0.400922L 7.82427 0.599078ZM 7.76363 27.3398C 8.20829 27.3941 8.49573 27.0582 8.63972 26.8404C 8.79293 26.6052 8.9489 26.2481 9.08296 25.8454C 9.34365 25.0572 9.59805 23.9195 9.84173 22.5842C 10.3275 19.9207 10.7951 16.3702 11.2644 12.8862C 11.7338 9.40232 12.2043 5.98871 12.6992 3.57055C 12.9452 2.36719 13.1856 1.45014 13.4354 0.885331C 13.5624 0.596121 13.6541 0.492288 13.6804 0.47263C 13.6862 0.466806 13.6444 0.491117 13.6489 0.487711C 13.6257 0.495817 13.5951 0.50154 13.5604 0.499633C 13.4873 0.495611 13.4554 0.462591 13.4689 0.4745L 14.1294 -0.276344C 14.0007 -0.389573 13.8279 -0.48716 13.6154 -0.498856C 13.4 -0.510709 13.2179 -0.430341 13.0811 -0.327877C 12.8337 -0.142672 12.6569 0.171208 12.5198 0.483126C 12.2415 1.12057 11.9715 2.13943 11.7195 3.37014C 11.2186 5.82011 10.743 9.26726 10.2734 12.7527C 9.8038 16.2382 9.33956 19.7657 8.85797 22.4048C 8.61798 23.7208 8.37984 24.7906 8.13379 25.5306C 8.01447 25.8919 7.91351 26.1291 7.80557 26.2889C 7.68842 26.466 7.71049 26.3258 7.88491 26.3471L 7.76363 27.3398ZM 13.4689 0.4745C 13.4418 0.45578 13.5003 0.503364 13.539 0.589706C 13.5849 0.685656 13.6198 0.791093 13.6592 0.950123C 13.7424 1.27995 13.8004 1.70197 13.8421 2.24175C 13.9273 3.33219 13.9287 4.77989 13.8756 6.48354C 13.7693 9.89615 13.4428 14.2567 13.1298 18.5478C 12.8168 22.8388 12.5172 27.0631 12.467 30.1785C 12.4421 31.7406 12.4813 33.0552 12.6137 33.9527C 12.6802 34.4004 12.7771 34.8023 12.9321 35.0952C 13.0107 35.2435 13.1231 35.4007 13.289 35.5107C 13.4708 35.6312 13.6849 35.6733 13.9017 35.6279L 13.6967 34.6491C 13.682 34.6418 13.8566 34.6759 13.8416 34.6773C 13.8526 34.6777 13.848 34.6929 13.816 34.6273C 13.7431 34.4897 13.6653 34.2263 13.6029 33.8058C 13.4774 32.967 13.442 31.734 13.4669 30.1945C 13.5163 27.1065 13.8142 22.9106 14.1271 18.6205C 14.4401 14.3304 14.7679 9.94907 14.8751 6.51469C 14.9286 4.79486 14.9265 3.29281 14.8391 2.16425C 14.7946 1.59452 14.7241 1.08972 14.6293 0.707532C 14.5372 0.339299 14.3948 -0.0428994 14.1294 -0.276344L 13.4689 0.4745ZM 7.83208 0.599017L 7.83208 0.599017L 7.81646 -0.400861L 7.81646 -0.400861L 7.83208 0.599017ZM 7.76363 27.3398C 7.76363 27.3398 7.76363 27.3398 7.76363 27.3398L 7.88491 26.3471L 7.88491 26.3471L 7.76363 27.3398ZM 13.7107 -0.39304L 13.7107 -0.39304L 13.8876 0.591197L 13.8876 0.591197L 13.7107 -0.39304Z"/>
</defs>
</svg>
