<svg width="9" height="11" viewBox="0 0 9 11" version="1.1" xmlns="http://www.w3.org/2000/svg" xmlns:xlink="http://www.w3.org/1999/xlink">
<title>Vector 32</title>
<desc>Created using Figma</desc>
<g id="Canvas" transform="translate(157 178)">
<g id="Vector 32">
<use xlink:href="#path0_stroke" transform="translate(-156.381 -176.583)" fill="#28536B"/>
</g>
</g>
<defs>
<path id="path0_stroke" d="M 6.08354 0.950928C 6.30349 1.11789 6.61714 1.07493 6.7841 0.854977C 6.95106 0.635025 6.9081 0.321371 6.68815 0.15441L 6.08354 0.950928ZM 2.36773 2.09662L 2.20241 2.5685L 2.20241 2.5685L 2.36773 2.09662ZM 1.07157 8.01508L 0.827816 8.45164L 1.07157 8.01508ZM 8.07291 7.55487C 8.24509 7.33898 8.20966 7.02439 7.99377 6.85221C 7.77788 6.68003 7.46329 6.71546 7.2911 6.93135L 8.07291 7.55487ZM 2.42644 3.74703L 2.18378 3.30986L 2.42644 3.74703ZM 1.07157 8.01508L 1.31533 7.57853L 1.31533 7.57853L 1.07157 8.01508ZM 6.68815 0.15441C 5.36908 -0.846862 3.6939 -0.542506 2.65002 0.0268734C 2.13496 0.307808 1.66343 0.710487 1.47788 1.1737C 1.37822 1.42248 1.34913 1.72694 1.50113 2.01666C 1.64746 2.29556 1.91327 2.4672 2.20241 2.5685L 2.53305 1.62474C 2.38832 1.5813 2.37807 1.51216 2.38666 1.55206C 2.40902 1.56004 2.37076 1.61279 2.40617 1.54555C 2.46446 1.40003 2.69448 1.1417 3.12886 0.904774C 3.98386 0.438422 5.19913 0.279594 6.08354 0.950928L 6.68815 0.15441ZM 2.18378 3.30986C 1.14142 3.88846 0.145411 4.71462 -0.281309 5.63048C -0.501685 6.10347 -0.583736 6.63324 -0.394867 7.15852C -0.208068 7.67806 0.213541 8.10866 0.827816 8.45164L 1.31533 7.57853C 0.834109 7.30983 0.625504 7.04087 0.546155 6.82018C 0.468875 6.60525 0.484742 6.35413 0.625133 6.05281C 0.919947 5.42006 1.69687 4.72387 2.66911 4.1842L 2.18378 3.30986ZM 0.827816 8.45164C 4.40434 10.4486 7.1338 8.73238 8.07291 7.55487L 7.2911 6.93135C 6.58841 7.81243 4.37517 9.28702 1.31533 7.57853L 0.827816 8.45164ZM 2.20241 2.5685L 2.20241 2.5685L 2.53305 1.62474C 2.53305 1.62474 2.53305 1.62474 2.53305 1.62474L 2.20241 2.5685ZM 2.20241 2.5685C 2.02836 2.50752 1.95951 2.37362 1.95449 2.36456C 1.93718 2.33335 1.93232 2.31356 1.93452 2.32096C 1.94195 2.34375 1.94682 2.37131 1.95562 2.43462C 1.97501 2.56974 1.98762 2.74153 1.99391 2.93049C 2.00039 3.11948 1.99939 3.29344 1.98949 3.43203C 1.98509 3.49737 1.98177 3.52888 1.97569 3.5552C 1.97375 3.56443 1.97603 3.54898 1.98774 3.52153C 1.98943 3.51756 2.03721 3.39123 2.18378 3.30986L 2.66911 4.1842C 2.83116 4.09425 2.89306 3.94786 2.90757 3.91385C 2.92519 3.8701 2.94504 3.8033 2.9542 3.76141C 2.96862 3.69046 2.98075 3.59042 2.98708 3.50146C 2.99866 3.33148 3.0003 3.1059 2.99333 2.89673C 2.98617 2.68752 2.96924 2.46253 2.94576 2.29454C 2.93311 2.2063 2.91321 2.10573 2.89287 2.03535C 2.87989 1.99318 2.85233 1.92407 2.82906 1.87966C 2.8087 1.84295 2.72381 1.69157 2.53305 1.62474L 2.20241 2.5685ZM 0.827816 8.45164L 0.827816 8.45164L 1.31533 7.57853L 1.31533 7.57853L 0.827816 8.45164Z"/>
</defs>
</svg>
